<!-- Generated by IcoMoon.io -->
<svg version="1.1" xmlns="http://www.w3.org/2000/svg" width="35" height="32" viewBox="0 0 35 32">
<path d="M8.35 10.674c4.381 0.229 8.602-0.344 12.051-3.303 1.889-1.621 3.487-3.586 5.222-5.391 0.421-0.436 0.811-0.895 1.277-1.277 1.109-0.91 2.217-0.979 3.242 0.046 0.864 0.872 1.713 1.904 2.133 3.028 3.081 8.243 3.081 16.524-0.115 24.736-0.405 1.032-1.216 1.973-2.034 2.768-1.017 0.994-2.172 0.933-3.242 0-0.551-0.482-1.070-1.048-1.46-1.667-3.678-5.819-8.939-8.572-15.82-8.281-1.759 0.076-3.533 0.046-5.291 0-2.676-0.061-4.205-1.606-4.297-4.274-0.183-5.207 0.948-6.385 6.102-6.385 0.749 0 1.491 0 2.233 0zM28.414 2.737c-2.026 2.806-2.607 5.903-2.906 9.13 3.441 0.512 4.917 1.636 4.947 3.884 0.015 0.833-0.26 1.759-0.673 2.485-0.895 1.575-2.569 1.782-4.297 1.85 0.359 3.357 0.925 6.446 2.875 9.145 4.397-3.38 4.68-22.129 0.054-26.495zM22.733 8.969c-2.584 2.080-5.444 3.517-8.709 4.129-0.283 0.054-0.65 0.619-0.673 0.963-0.076 1.3-0.076 2.6 0 3.9 0.023 0.344 0.398 0.918 0.673 0.956 3.173 0.482 6.048 1.652 8.702 3.647 0.008-4.588 0.008-9.015 0.008-13.595zM10.491 13.351c-1.537 0-2.921-0.054-4.297 0.015-1.468 0.069-2.103 0.925-1.996 2.5 2.095 0 4.19 0 6.293 0 0-0.849 0-1.575 0-2.516zM4.19 22.733c2.24 0 4.175 0 6.224 0-0.084 0.65-0.161 1.223-0.237 1.805-0.176 1.361 0.069 2.546 1.139 3.54 0.459 0.421 0.849 1.009 1.055 1.598 0.428 1.193-0.199 2.141-1.476 2.248-0.963 0.084-1.965 0.145-2.906-0.015-0.543-0.099-1.323-0.558-1.468-1.025-0.849-2.63-1.537-5.307-2.332-8.151zM14.811 16.088c-0.306-0.956-0.245-1.438 0.719-1.476 2.049-0.076 3.907-0.688 5.437-2.141 0.627 2.026 0.382 2.584-1.529 2.974-1.514 0.306-3.074 0.436-4.626 0.642z"></path>
</svg>
