<!-- Generated by IcoMoon.io -->
<svg version="1.1" xmlns="http://www.w3.org/2000/svg" width="40" height="32" viewBox="0 0 40 32">
<path d="M30.686 14.556c0.201-0.525 0.314-1.1 0.314-1.699 0-2.603-2.112-4.714-4.714-4.714-0.967 0-1.871 0.295-2.618 0.796-1.36-2.357-3.899-3.938-6.811-3.938-4.341 0-7.857 3.516-7.857 7.857 0 0.133 0.005 0.267 0.010 0.399-2.75 0.966-4.724 3.588-4.724 6.672 0 3.904 3.167 7.072 7.072 7.072h18.072c3.471 0 6.286-2.814 6.286-6.286 0-3.040-2.161-5.579-5.029-6.158zM25.112 19.148l-4.321 4.321c-0.083 0.167-0.373 0.388-0.791 0.388s-0.707-0.219-0.833-0.345l-4.321-4.321c-0.46-0.46-0.46-1.206 0-1.667s1.206-0.46 1.667 0l2.31 2.312v-7.371c0-0.648 0.53-1.179 1.179-1.179s1.179 0.528 1.179 1.179v7.371l2.31-2.31c0.46-0.46 1.206-0.46 1.667 0s0.458 1.205-0.043 1.622z"></path>
</svg>
