<!-- Generated by IcoMoon.io -->
<svg version="1.1" xmlns="http://www.w3.org/2000/svg" width="32" height="32" viewBox="0 0 32 32">
<path d="M28.175 18.313c0.9 0.012 1.738 0.313 2.438 0.975 0.525 0.512 0.85 1.137 0.975 1.863 0.137 0.813 0.012 1.587-0.387 2.3-0.462 0.825-1.163 1.363-2.075 1.587-1.1 0.288-2.15 0.137-3.087-0.538-0.688-0.488-1.125-1.163-1.3-1.988-0.212-1-0.050-1.95 0.55-2.788 0.512-0.712 1.212-1.15 2.063-1.337 0.25-0.050 0.512-0.075 0.825-0.075zM29.85 21.738c0.025-0.962-0.762-1.75-1.725-1.738-0.975 0-1.725 0.75-1.725 1.738-0.012 0.962 0.75 1.8 1.825 1.75 0.887-0.038 1.65-0.775 1.625-1.75zM11.65 24.225c0-0.225 0-0.462 0-0.688 0-0.050 0.012-0.063 0.063-0.050 0.537 0.137 1.075 0.25 1.625 0.225 0.238-0.012 0.475-0.025 0.7-0.125 0.162-0.063 0.313-0.163 0.375-0.337 0.063-0.188 0.012-0.387-0.15-0.538-0.137-0.125-0.313-0.2-0.488-0.262-0.338-0.113-0.675-0.2-0.988-0.363-0.375-0.188-0.7-0.425-0.912-0.8-0.2-0.35-0.262-0.725-0.225-1.113 0.037-0.512 0.238-0.95 0.637-1.3 0.313-0.275 0.688-0.425 1.088-0.512 0.45-0.087 0.9-0.087 1.35-0.038 0.313 0.038 0.625 0.087 0.938 0.15 0.063 0.012 0.088 0.038 0.088 0.1 0 0.425 0 0.837 0 1.262 0 0.063-0.012 0.075-0.075 0.050-0.438-0.113-0.887-0.2-1.338-0.188-0.225 0.012-0.45 0.038-0.65 0.137-0.35 0.188-0.387 0.563-0.063 0.8 0.137 0.1 0.3 0.15 0.463 0.212 0.325 0.113 0.662 0.188 0.963 0.337 0.5 0.25 0.887 0.6 1.062 1.15 0.25 0.775 0.050 1.913-1.037 2.45-0.4 0.2-0.825 0.3-1.262 0.325-0.563 0.038-1.113-0.012-1.662-0.087-0.137-0.025-0.275-0.050-0.412-0.063-0.050-0.012-0.075-0.025-0.075-0.087-0.012-0.188-0.012-0.413-0.012-0.65zM5.425 23.163c0 0.45 0 0.887 0 1.325 0 0.137 0 0.262 0 0.4 0 0.038-0.013 0.050-0.050 0.063-0.65 0.188-1.313 0.275-1.987 0.188-0.913-0.125-1.688-0.512-2.275-1.225-0.387-0.475-0.613-1.025-0.7-1.637-0.088-0.625-0.037-1.25 0.2-1.837 0.363-0.9 1.012-1.525 1.913-1.875 0.625-0.238 1.275-0.288 1.938-0.212 0.3 0.038 0.6 0.1 0.9 0.188 0.050 0.012 0.063 0.038 0.063 0.087 0 0.55 0 1.087 0 1.637 0 0.063-0.013 0.075-0.063 0.038-0.5-0.25-1.037-0.363-1.6-0.3-0.925 0.1-1.512 0.775-1.563 1.613-0.038 0.587 0.138 1.087 0.587 1.475 0.362 0.313 0.8 0.438 1.263 0.425 0.475 0 0.912-0.113 1.325-0.325 0.013-0.012 0.025-0.012 0.050-0.025zM22.875 19.425c0 0.275 0 0.55 0 0.825 0 0.063-0.012 0.075-0.063 0.038-0.512-0.25-1.038-0.363-1.613-0.3-0.9 0.1-1.475 0.75-1.55 1.563-0.050 0.538 0.087 1.025 0.462 1.425 0.288 0.3 0.637 0.462 1.050 0.512 0.575 0.075 1.125-0.038 1.637-0.288 0.050-0.025 0.075-0.025 0.075 0.038 0 0.538 0 1.087 0 1.625 0 0.050-0.012 0.075-0.063 0.087-0.525 0.15-1.063 0.238-1.613 0.212-0.988-0.050-1.837-0.387-2.512-1.113-0.462-0.488-0.725-1.087-0.825-1.75-0.087-0.587-0.050-1.175 0.15-1.738 0.313-0.913 0.925-1.563 1.813-1.95 0.625-0.275 1.275-0.35 1.95-0.288 0.35 0.025 0.7 0.1 1.038 0.2 0.050 0.012 0.063 0.038 0.063 0.087 0 0.275 0 0.55 0 0.813zM25.95 10.3c0 1.463 0 2.925 0 4.375 0 0.412-0.25 0.738-0.65 0.838-0.45 0.113-0.938-0.213-1-0.675-0.012-0.063-0.012-0.113-0.012-0.175 0-2.9 0-5.813 0-8.713 0-0.45 0.262-0.775 0.7-0.862 0.475-0.088 0.875 0.25 0.95 0.675 0.012 0.075 0.012 0.138 0.012 0.213 0 1.438 0 2.875 0 4.325zM6.050 10.3c0-1.45 0-2.912 0-4.362 0-0.438 0.263-0.775 0.7-0.85 0.487-0.088 0.888 0.263 0.95 0.675 0.013 0.075 0.013 0.15 0.013 0.225 0 2.9 0 5.787 0 8.688 0 0.387-0.225 0.7-0.563 0.825-0.487 0.162-1-0.15-1.088-0.662-0.013-0.063-0.013-0.113-0.013-0.175 0-1.463 0-2.912 0-4.362zM9.387 21.75c0 1.075 0 2.15 0 3.225 0 0.063-0.012 0.087-0.088 0.087-0.5 0-1.012 0-1.513 0-0.063 0-0.075-0.012-0.075-0.075 0-2.163 0-4.313 0-6.475 0-0.063 0.025-0.075 0.075-0.075 0.5 0 1.013 0 1.513 0 0.063 0 0.088 0.012 0.088 0.087 0 1.063 0 2.137 0 3.225zM30.512 11.037c0 0.662 0 1.325 0 2 0 0.412-0.262 0.738-0.65 0.825-0.475 0.113-0.962-0.238-1-0.725 0-0.063-0.012-0.113-0.012-0.175 0-1.3 0-2.6 0-3.887 0-0.35 0.137-0.613 0.45-0.775 0.55-0.287 1.212 0.1 1.212 0.738 0 0.537 0 1.063 0 1.6 0 0.125 0 0.262 0 0.4zM12.275 11.037c0 0.662 0 1.325 0 1.988 0 0.4-0.25 0.738-0.625 0.825-0.537 0.137-1.037-0.262-1.037-0.838 0-1.025 0-2.063 0-3.088 0-0.3 0-0.588 0-0.887 0-0.4 0.262-0.725 0.637-0.825 0.525-0.125 1.025 0.262 1.025 0.825s0 1.125 0 1.688c0 0.1 0 0.2 0 0.313zM19.725 11.037c0-0.662 0-1.325 0-1.988 0-0.4 0.25-0.725 0.625-0.825 0.525-0.137 1.038 0.262 1.038 0.825 0 0.525 0 1.063 0 1.588 0 0.787 0 1.588 0 2.375 0 0.4-0.25 0.738-0.613 0.838-0.538 0.137-1.050-0.25-1.050-0.813 0-0.637 0-1.287 0-1.925 0-0.037 0-0.050 0-0.075zM1.488 11.037c0-0.662 0-1.325 0-2 0-0.412 0.275-0.75 0.675-0.825 0.475-0.1 0.95 0.262 0.975 0.738 0 0.063 0.013 0.125 0.013 0.175 0 1.287 0 2.575 0 3.875 0 0.225-0.063 0.425-0.212 0.6-0.237 0.262-0.587 0.35-0.925 0.225-0.313-0.113-0.525-0.425-0.525-0.762 0-0.5 0-1.012 0-1.512 0-0.175 0-0.35 0-0.512zM16.837 12.175c0 0.287 0 0.575 0 0.85 0 0.488-0.387 0.85-0.863 0.85-0.425-0.012-0.8-0.375-0.8-0.8-0.012-0.6-0.012-1.2 0-1.813 0-0.438 0.4-0.8 0.85-0.787 0.462 0.012 0.813 0.375 0.825 0.838-0.012 0.287-0.012 0.575-0.012 0.863z"></path>
</svg>
