<!-- Generated by IcoMoon.io -->
<svg version="1.1" xmlns="http://www.w3.org/2000/svg" width="32" height="32" viewBox="0 0 32 32">
<path d="M16.003 19.702c-3.096 3.103-6.084 6.111-9.105 9.085-0.481 0.474-1.091 0.915-1.721 1.111-1.111 0.346-2.269-0.251-2.839-1.247-0.576-1.016-0.434-2.229 0.488-3.171 2.364-2.412 4.756-4.796 7.161-7.168 0.759-0.745 1.579-1.423 2.432-2.188-3.204-3.204-6.212-6.185-9.18-9.207-0.495-0.508-0.962-1.165-1.152-1.829-0.318-1.125 0.305-2.283 1.341-2.778 1.118-0.535 2.181-0.386 3.069 0.495 1.91 1.877 3.794 3.773 5.684 5.67 1.247 1.253 2.48 2.52 3.787 3.848 2.507-2.507 4.912-4.918 7.323-7.33 0.61-0.61 1.219-1.226 1.836-1.836 1.396-1.375 2.994-1.511 4.112-0.359 1.097 1.131 0.969 2.676-0.373 4.024-2.73 2.744-5.474 5.474-8.204 8.218-0.291 0.291-0.562 0.589-1.077 1.125 0.881 0.786 1.768 1.504 2.581 2.31 2.29 2.256 4.559 4.525 6.815 6.815 1.247 1.267 1.321 2.845 0.224 3.936-1.084 1.091-2.676 1.009-3.936-0.244-3.055-3.049-6.104-6.118-9.268-9.281z"></path>
</svg>
