<!-- Generated by IcoMoon.io -->
<svg version="1.1" xmlns="http://www.w3.org/2000/svg" width="32" height="32" viewBox="0 0 32 32">
<path d="M26.88 14.53c0.205-0.535 0.32-1.12 0.32-1.73 0-2.65-2.15-4.8-4.8-4.8-0.984 0-1.904 0.3-2.666 0.81-1.384-2.4-3.969-4.010-6.934-4.010-4.42 0-8 3.58-8 8 0 0.135 0.006 0.273 0.010 0.407-2.8 0.983-4.81 3.653-4.81 6.793 0 3.975 3.225 7.2 7.2 7.2h18.4c3.534 0 6.4-2.865 6.4-6.4 0-3.095-2.2-5.68-5.12-6.27zM20.125 20.276c0.516 0.516 0.516 1.289 0 1.805-0.258 0.258-0.58 0.387-0.902 0.387s-0.644-0.129-0.902-0.387l-2.32-2.321-2.32 2.32c-0.258 0.258-0.58 0.387-0.902 0.387s-0.644-0.129-0.902-0.387c-0.516-0.516-0.516-1.289 0-1.804l2.32-2.32-2.32-2.321c-0.516-0.516-0.516-1.289 0-1.805s1.289-0.516 1.805 0l2.32 2.321 2.32-2.32c0.516-0.516 1.289-0.516 1.805 0s0.516 1.289 0 1.805l-2.32 2.321 2.32 2.319z"></path>
</svg>
