<!-- Generated by IcoMoon.io -->
<svg version="1.1" xmlns="http://www.w3.org/2000/svg" width="32" height="32" viewBox="0 0 32 32">
<path d="M26.88 14.53c0.205-0.535 0.32-1.12 0.32-1.73 0-2.65-2.15-4.8-4.8-4.8-0.985 0-1.905 0.3-2.665 0.81-1.385-2.4-3.97-4.010-6.935-4.010-4.42 0-8 3.58-8 8 0 0.135 0.005 0.273 0.010 0.406-2.8 0.984-4.81 3.654-4.81 6.794 0 3.975 3.225 7.2 7.2 7.2h18.4c3.535 0 6.4-2.865 6.4-6.4 0-3.095-2.2-5.68-5.12-6.27zM22.8 15.15c-0.070 0.334-0.214 0.623-0.46 0.868-2.488 2.482-4.971 4.969-7.457 7.454-0.605 0.605-1.398 0.602-2.004-0.004-1.143-1.141-2.281-2.286-3.428-3.424-0.307-0.305-0.604-0.609-0.691-1.055 0-0.13 0-0.26 0-0.39 0.010-0.016 0.025-0.031 0.029-0.050 0.111-0.521 0.425-0.869 0.929-1.018 0.499-0.148 0.953-0.026 1.322 0.341 0.936 0.93 1.865 1.866 2.797 2.8 0.010 0.010 0.024 0.019 0.084 0.075 0.030-0.052 0.049-0.116 0.090-0.157 2.065-2.069 4.135-4.134 6.199-6.205 0.309-0.31 0.611-0.616 1.061-0.707 0.13 0 0.26 0 0.39 0 0.026 0.011 0.052 0.025 0.080 0.031 0.53 0.131 0.87 0.457 1.016 0.985 0.014 0.051 0.030 0.102 0.044 0.154-0.001 0.102-0.001 0.203-0.001 0.303z"></path>
</svg>
