<!-- Generated by IcoMoon.io -->
<svg version="1.1" xmlns="http://www.w3.org/2000/svg" width="32" height="32" viewBox="0 0 32 32">
<path d="M17.289 11.286h9.711c0.864 0 1.571-0.707 1.571-1.571s-0.707-1.571-1.571-1.571h-9.712c-0.66-1.823-2.389-3.143-4.431-3.143-2.059 0-3.803 1.351-4.447 3.19-0.094-0.016-0.173-0.047-0.267-0.047h-3.143c-0.864 0-1.571 0.707-1.571 1.571s0.707 1.571 1.571 1.571h3.143c0.094 0 0.173-0.031 0.267-0.047 0.644 1.839 2.389 3.19 4.447 3.19 2.043 0 3.771-1.32 4.431-3.143zM11.286 9.714c0-0.864 0.707-1.571 1.571-1.571s1.571 0.707 1.571 1.571-0.707 1.571-1.571 1.571-1.571-0.707-1.571-1.571zM19.143 27c2.043 0 3.771-1.32 4.431-3.143h3.426c0.864 0 1.571-0.707 1.571-1.571s-0.707-1.571-1.571-1.571h-3.426c-0.66-1.823-2.389-3.143-4.431-3.143s-3.771 1.32-4.431 3.143h-9.711c-0.864 0-1.571 0.707-1.571 1.571s0.707 1.571 1.571 1.571h9.711c0.66 1.823 2.389 3.143 4.431 3.143zM17.571 22.286c0-0.864 0.707-1.571 1.571-1.571s1.571 0.707 1.571 1.571-0.707 1.571-1.571 1.571-1.571-0.707-1.571-1.571z"></path>
</svg>
