<!-- Generated by IcoMoon.io -->
<svg version="1.1" xmlns="http://www.w3.org/2000/svg" width="84" height="32" viewBox="0 0 84 32">
<path d="M6.366 25.14c0.971 0 1.37 0.112 1.791 0.483 0.421 0.399 0.634 0.994 0.634 1.841v3.733h-1.667v-3.919c0-0.612-0.247-0.848-0.859-0.848h-1.443v4.761h-1.667v-6.058h3.211zM15.281 28.811h-3.509c0.039 0.46 0.152 0.685 0.449 0.881 0.236 0.163 0.5 0.213 1.022 0.213h2.038v1.291h-2.212c-0.96 0-1.493-0.152-2.038-0.573-0.719-0.55-1.095-1.42-1.095-2.538 0-1.055 0.46-2.027 1.179-2.515 0.46-0.309 1.005-0.438 1.83-0.438h2.335v1.291h-2.212c-0.909 0-1.218 0.247-1.291 1.084h3.509v1.302zM17.134 22.905h1.667v2.24h1.544v1.291h-1.544v2.201c0 0.623 0.022 0.808 0.135 0.971 0.135 0.197 0.399 0.298 0.747 0.298h0.657v1.291h-1.207c-0.696 0-1.145-0.135-1.465-0.46-0.41-0.387-0.533-0.831-0.533-1.813v-2.487h-1.055v-1.291h1.055v-2.24zM11.52 21.339c-6.31 0-10.953-4.334-10.953-10.189s4.564-10.341 10.425-10.341 9.847 4.373 9.847 10.111c0 0.573-0.039 1.291-0.112 2.015h-14.641c0.494 2.358 2.431 3.879 5.322 3.879 1.976 0 3.385-0.724 4.789-2.397l3.992 2.964c-1.976 2.549-5.058 3.952-8.668 3.952v0zM15.478 8.943c-0.303-2.206-2.055-3.688-4.525-3.688s-4.104 1.561-4.716 3.688h9.241zM44.031 20.761h-4.755v-1.712c-1.712 1.443-3.919 2.279-6.31 2.279-5.592 0-10.077-4.564-10.077-10.268s4.486-10.257 10.077-10.257c2.397 0 4.598 0.837 6.31 2.279v-1.712h4.755v19.391zM33.611 16.691c3.004 0 5.401-2.431 5.401-5.625s-2.397-5.625-5.401-5.625-5.434 2.431-5.434 5.625 2.397 5.625 5.434 5.625zM48.78 15.214c1.594 1.258 3.155 1.864 4.564 1.864s2.206-0.606 2.206-1.712c0-0.909-0.573-1.443-2.7-2.358l-0.837-0.342c-3.458-1.443-5.058-3.116-5.058-5.743 0-3.576 2.891-6.119 7.186-6.119 2.246 0 4.676 0.724 6.198 1.825l-2.167 3.761c-1.218-0.876-2.397-1.331-3.728-1.331-1.443 0-2.279 0.573-2.279 1.561 0 0.837 0.646 1.409 3.043 2.431l0.606 0.264c3.61 1.561 5.019 3.155 5.019 5.816 0 3.688-2.773 6.198-7.074 6.198-2.773 0-5.816-1.067-7.416-2.622l2.431-3.498zM69.653 19.969l-7.792-18.594h5.474l5.098 13.154 5.171-13.154h5.474l-11.975 27.756h-5.401l3.952-9.162z"></path>
</svg>
