<!-- Generated by IcoMoon.io -->
<svg version="1.1" xmlns="http://www.w3.org/2000/svg" width="32" height="32" viewBox="0 0 32 32">
<path d="M31.621 18.919l-0.229-0.842-0.829-3.082-3.866 3.866-6.145-6.145-11.35 11.35 1.443 5.375 8.242 2.207c0.842 0.229 1.737-0.013 2.351-0.633l9.737-9.737c0.614-0.614 0.855-1.515 0.633-2.351v0zM15.478 30.087l-1.175-4.408 6.263-6.263 2.795 2.795-7.882 7.882zM20.304 2.273l-7.269-1.946c-0.842-0.229-1.737 0.013-2.351 0.633l-9.744 9.737c-0.209 0.209-0.379 0.451-0.496 0.718-0.229 0.509-0.281 1.084-0.137 1.639l1.038 3.866 3.154-3.154 6.145 6.145 11.35-11.35-1.691-6.282zM16.32 7.53l-5.675 5.675-2.795-2.795 7.882-7.882 1.175 4.408-0.588 0.588z"></path>
</svg>
