<!-- Generated by IcoMoon.io -->
<svg version="1.1" xmlns="http://www.w3.org/2000/svg" width="32" height="32" viewBox="0 0 32 32">
<path d="M31.353 17.881l-2.998-11.18c-0.398-1.489-1.561-2.651-3.056-3.056l-11.18-2.998c-1.489-0.398-3.082 0.026-4.173 1.117l-8.183 8.183c-1.091 1.091-1.515 2.684-1.117 4.173l2.998 11.18c0.398 1.489 1.561 2.651 3.056 3.056l11.18 2.998c1.489 0.398 3.082-0.026 4.173-1.117l8.183-8.183c1.091-1.091 1.515-2.684 1.117-4.173zM23.086 22.975c-0.405 0.405-0.953 0.895-1.522 1.358l-10.462-10.462c-1.332 2.038-1.032 4.513 1.032 6.576 1.417 1.411 2.939 1.9 5.14 1.711l0.731 4.976c-3.233 0.405-6.439-0.79-9.025-3.37-4.513-4.513-4.728-10.926-0.542-15.112 0.542-0.542 1.123-1.012 1.731-1.411l3.899 3.886 6.602 6.602c1.358-1.796 1.169-4.108-0.601-5.871-1.548-1.554-3.396-1.783-5.12-1.143l-0.745-5.042c3.187-0.503 6.55 0.503 9.078 3.030v0c4.075 4.082 3.912 10.168-0.189 14.269v0z"></path>
</svg>
