<!-- Generated by IcoMoon.io -->
<svg version="1.1" xmlns="http://www.w3.org/2000/svg" width="32" height="32" viewBox="0 0 32 32">
<path d="M26.175 8.988c0 6.044 0 12.088 0 18.137-0.006 0.019-0.012 0.031-0.012 0.050-0.025 0.169-0.038 0.337-0.081 0.5-0.281 1.137-1.344 1.969-2.519 1.969-5.050 0-10.094 0-15.144 0-0.131 0-0.269-0.012-0.4-0.038-1.281-0.225-2.188-1.306-2.188-2.613 0-7.331 0-14.662 0-22 0-0.175 0.019-0.35 0.050-0.519 0.194-1.063 1.087-1.931 2.156-2.087 0.119-0.019 0.244-0.031 0.363-0.044 3.706 0 7.412 0 11.119 0 0.094 0.025 0.188 0.038 0.275 0.069 0.175 0.056 0.294 0.188 0.419 0.319 1.831 1.831 3.663 3.663 5.494 5.494 0.063 0.063 0.119 0.119 0.181 0.175 0.125 0.119 0.212 0.256 0.256 0.425 0.012 0.050 0.019 0.113 0.031 0.162zM18.587 4.138c-0.031 0-0.056 0-0.081 0-3.331 0-6.662 0-10 0-0.106 0-0.213 0.013-0.306 0.044-0.362 0.119-0.581 0.438-0.581 0.844 0 7.313 0 14.625 0 21.938 0 0.012 0 0.025 0 0.038 0.006 0.488 0.375 0.856 0.862 0.856 5.013 0 10.019 0 15.031 0 0.5 0 0.869-0.369 0.869-0.869 0-5.65 0-11.306 0-16.956 0-0.031 0-0.056 0-0.1-0.038 0-0.069 0-0.1 0-1.6 0-3.194 0-4.794 0-0.044 0-0.087 0-0.125-0.006-0.469-0.075-0.775-0.438-0.775-0.912 0-1.594 0-3.188 0-4.775 0-0.031 0-0.063 0-0.1zM23.1 8.15c-0.906-0.906-1.819-1.819-2.725-2.725 0 0.894 0 1.806 0 2.725 0.913 0 1.825 0 2.725 0zM15.994 13.95c1.737 0 3.469 0 5.206 0 0.431 0 0.781 0.269 0.887 0.681 0.137 0.55-0.281 1.094-0.844 1.106-0.012 0-0.025 0-0.038 0-3.469 0-6.938 0-10.412 0-0.488 0-0.856-0.344-0.9-0.844-0.044-0.425 0.281-0.838 0.725-0.925 0.069-0.012 0.137-0.012 0.206-0.012 1.725-0.006 3.444-0.006 5.169-0.006zM16 23.225c1.719 0 3.438 0 5.15 0 0.181 0 0.35 0.025 0.506 0.119 0.344 0.2 0.519 0.594 0.425 0.981-0.094 0.394-0.425 0.669-0.825 0.688-0.025 0-0.056 0-0.081 0-3.456 0-6.912 0-10.363 0-0.45 0-0.806-0.275-0.906-0.706-0.125-0.538 0.281-1.069 0.838-1.081 0.256-0.006 0.512-0.006 0.762-0.006 1.5 0.006 3 0.006 4.494 0.006zM16 18.587c1.738 0 3.469 0 5.206 0 0.469 0 0.844 0.331 0.9 0.794 0.050 0.45-0.25 0.869-0.706 0.969-0.063 0.012-0.131 0.019-0.2 0.019-3.469 0-6.938 0-10.412 0-0.488 0-0.869-0.356-0.9-0.863-0.025-0.456 0.3-0.85 0.756-0.919 0.044-0.006 0.094-0.006 0.144-0.006 1.738 0.006 3.475 0.006 5.213 0.006z"></path>
</svg>
