<!-- Generated by IcoMoon.io -->
<svg version="1.1" xmlns="http://www.w3.org/2000/svg" width="32" height="32" viewBox="0 0 32 32">
<path d="M15.461 11.624c-0.073-0.56-0.024-1.136-0.065-1.703-0.114-1.509-0.308-2.993-0.657-4.469-0.211-0.917-0.495-1.825-0.949-2.661-0.049-0.097-0.073-0.219-0.243-0.195-0.779 0.114-1.557 0.235-2.279 0.552-0.982 0.422-1.687 1.184-2.166 2.117-0.535 1.038-0.56 2.182-0.349 3.301 0.251 1.338 0.762 2.588 1.347 3.821 0.787 1.663 1.695 3.269 2.652 4.834 0.665 1.087 1.387 2.141 2.085 3.204 0.049 0.073 0.097 0.17 0.219 0.138 0.105-0.032 0.114-0.122 0.114-0.211 0.097-1.257 0.219-2.515 0.284-3.772 0.049-0.941 0.114-1.89 0.089-2.839-0.049-0.706 0.008-1.411-0.081-2.117zM22.704 10.294c0.333-0.973 0.552-1.963 0.584-2.985-0.008-0.357-0.032-0.706-0.122-1.054-0.349-1.436-1.209-2.45-2.523-3.082-0.584-0.276-1.225-0.381-1.858-0.487-0.495-0.089-0.495-0.089-0.714 0.341-0.698 1.403-0.998 2.928-1.249 4.453-0.13 0.795-0.219 1.606-0.26 2.417-0.032 0.625-0.097 1.249-0.105 1.882-0.024 1.217-0.016 2.425 0 3.642 0.008 0.633 0.065 1.282 0.097 1.914 0.024 0.389 0.057 0.779 0.081 1.168 0.032 0.625 0.138 1.249 0.162 1.882 0 0.065 0.024 0.114 0.073 0.146 0.065 0.041 0.13 0.024 0.178-0.032 0.049-0.065 0.105-0.138 0.154-0.211 1.217-1.776 2.36-3.593 3.399-5.475 0.803-1.452 1.557-2.936 2.101-4.518zM28.131 15.233c0.982-0.925 1.509-2.036 1.533-3.504-0.016-0.138-0.032-0.381-0.073-0.633-0.122-0.73-0.406-1.411-0.779-2.052-0.446-0.771-0.998-1.452-1.614-2.093-0.089-0.097-0.146-0.138-0.26 0.008-0.138 0.178-0.284 0.357-0.422 0.535-0.803 1.046-1.557 2.125-2.32 3.204-0.884 1.257-1.712 2.547-2.506 3.861-0.844 1.387-1.63 2.798-2.352 4.25-0.373 0.754-0.754 1.509-1.128 2.271-0.049 0.097-0.049 0.211 0.032 0.3 0.105 0.114 0.203 0 0.276-0.049 0.089-0.057 0.162-0.138 0.26-0.178 1.046-0.511 2.077-1.055 3.090-1.639 2.198-1.265 4.405-2.523 6.262-4.283zM12.662 18.9c-1.549-3.034-3.309-5.93-5.248-8.728-0.73-1.054-1.509-2.085-2.296-3.107-0.065-0.081-0.138-0.146-0.211-0.227-0.057 0.049-0.105 0.097-0.154 0.138-0.827 0.803-1.46 1.736-1.955 2.774-0.333 0.698-0.535 1.428-0.519 2.198 0.008 0.422 0.097 0.835 0.227 1.249 0.195 0.633 0.519 1.192 0.941 1.679 0.43 0.503 0.965 0.9 1.484 1.306 0.397 0.316 0.779 0.657 1.209 0.917 0.511 0.3 0.973 0.665 1.484 0.957 0.592 0.333 1.144 0.722 1.728 1.063 0.641 0.373 1.306 0.706 1.963 1.055 0.722 0.389 1.452 0.779 2.174 1.168 0.089 0.049 0.178 0.065 0.251 0 0.081-0.073 0.016-0.154-0.016-0.235-0.333-0.738-0.689-1.476-1.063-2.206zM12.873 22.299c-0.657-0.422-1.306-0.86-1.971-1.257-1.233-0.746-2.45-1.517-3.715-2.214-0.446-0.243-0.852-0.552-1.322-0.779-0.592-0.284-1.144-0.641-1.72-0.957-1.274-0.698-2.547-1.395-3.853-2.109-0.333 0.941-0.365 1.882-0.211 2.807 0.178 1.063 0.641 2.020 1.355 2.823 1.063 1.209 2.401 1.931 4.023 1.955 2.442 0.041 4.875 0.008 7.317 0.008 0.089 0 0.187 0.008 0.227-0.089 0.041-0.105-0.057-0.146-0.13-0.187zM31.813 15.282c-0.008-0.073-0.024-0.406-0.316-0.235-0.689 0.381-1.387 0.738-2.068 1.119-0.616 0.341-1.209 0.706-1.825 1.046-0.689 0.389-1.395 0.771-2.085 1.16-0.495 0.284-0.973 0.616-1.484 0.876-0.519 0.268-0.998 0.584-1.493 0.876-0.535 0.308-1.063 0.633-1.59 0.965-0.592 0.381-1.209 0.738-1.768 1.168-0.081 0.065-0.26 0.049-0.211 0.219 0.041 0.154 0.187 0.105 0.292 0.105 1.225 0 2.458 0 3.683 0 0 0 0-0.008 0-0.008 1.071 0 2.15-0.008 3.22 0 0.527 0.008 1.038-0.073 1.541-0.219 1.963-0.568 3.236-1.858 3.942-3.756 0.26-0.689 0.308-1.428 0.324-2.15 0.024-0.373-0.105-0.779-0.162-1.168zM23.094 23.467c-0.576-0.008-1.152-0.097-1.736-0.081-0.657 0.024-1.314-0.081-1.971-0.041-0.089 0.008-0.195-0.081-0.251 0.049s0.073 0.195 0.146 0.243c0.519 0.365 1.030 0.738 1.557 1.071 0.892 0.568 1.785 1.144 2.742 1.606 0.446 0.211 0.917 0.373 1.403 0.381 0.487 0.016 0.965-0.146 1.403-0.349 1.2-0.568 1.987-1.549 2.677-2.693-0.535-0.065-1.038-0.032-1.533-0.057-1.484-0.065-2.961-0.105-4.437-0.13zM12.646 23.304c-0.138 0.008-0.268 0.041-0.397 0.041-1.574 0.032-3.139 0.097-4.705 0.162-0.917 0.041-1.833 0.049-2.75 0.13-0.527 0-1.063 0-1.59 0-0.081 0-0.203-0.049-0.235 0.041-0.024 0.057 0.049 0.154 0.089 0.227 0.47 0.779 1.046 1.468 1.776 2.004 0.933 0.681 1.963 0.973 3.107 0.568 0.787-0.284 1.493-0.73 2.198-1.16 0.892-0.543 1.752-1.136 2.604-1.744 0.065-0.049 0.13-0.097 0.105-0.178-0.041-0.089-0.122-0.097-0.203-0.089z"></path>
</svg>
