<!-- Generated by IcoMoon.io -->
<svg version="1.1" xmlns="http://www.w3.org/2000/svg" width="32" height="32" viewBox="0 0 32 32">
<path d="M25.333 2.667h-18.667c-2.209 0-4 1.791-4 4v0 18.667c0 2.209 1.791 4 4 4v0h18.667c2.209 0 4-1.791 4-4v0-18.667c0-2.209-1.791-4-4-4v0zM13.333 9.333c1.473 0 2.667 1.194 2.667 2.667s-1.194 2.667-2.667 2.667c-1.473 0-2.667-1.194-2.667-2.667v0c0-1.473 1.194-2.667 2.667-2.667v0zM9.987 26.667h-3.32c-0.589-0.010-1.084-0.401-1.251-0.937l-0.003-0.009 4.12-4.947c0.26-0.29 0.635-0.474 1.052-0.48h0.001c0.425 0.009 0.799 0.215 1.038 0.53l0.002 0.003 1.333 1.773zM26.667 25.333c0 0.736-0.597 1.333-1.333 1.333v0h-12l7.293-10.027c0.225-0.307 0.572-0.514 0.969-0.546l0.005-0c0.033-0.003 0.071-0.005 0.11-0.005 0.369 0 0.702 0.149 0.943 0.391v0l4.013 4.067z"></path>
</svg>
