<!-- Generated by IcoMoon.io -->
<svg version="1.1" xmlns="http://www.w3.org/2000/svg" width="30" height="32" viewBox="0 0 30 32">
<path d="M9.186 16.122c1.18-5.472 6.335-8.646 12.179-7.906 4.978 0.63 8.902 5.269 8.915 10.563 0 3.995-0.039 7.99 0.026 11.982 0.019 1.189-0.265 1.752-1.552 1.616-1.364-0.142-3.181 0.323-3.979-0.404-0.692-0.621-0.278-2.518-0.288-3.853-0.026-2.909 0-5.818 0-8.75-0.016-3.161-2.095-5.417-4.949-5.411s-4.897 2.246-4.903 5.446c0 3.905-0.026 7.809 0 11.714 0 0.931-0.275 1.293-1.219 1.257-0.503-0.029-1.091-0.045-1.682-0.045s-1.18 0.016-1.764 0.048l0.081-0.004c-1.034 0.055-1.293-0.417-1.293-1.367 0.065-2.195-0.149-12.212 0.427-14.888zM6.274 20.211c0 3.539-0.065 7.082 0.032 10.621 0.036 1.293-0.433 1.616-1.616 1.551s-2.337 0.048-3.491-0.068c-0.339-0.036-0.892-0.598-0.895-0.924q-0.078-10.822 0-21.657c0-0.323 0.372-0.899 0.646-0.97 1.487-0.288 2.993-0.478 4.499-0.646 0.889-0.097 0.834 0.572 0.834 1.173q-0.016 5.472-0.010 10.919zM3.268 6.771c-0.041 0.002-0.088 0.003-0.136 0.003-1.73 0-3.132-1.402-3.132-3.132 0-0.003 0-0.007 0-0.010v0.001c0-0.017-0.001-0.038-0.001-0.058 0-1.753 1.421-3.174 3.174-3.174 0.015 0 0.030 0 0.045 0h-0.002c0.012 0 0.026 0 0.040 0 1.772 0 3.215 1.408 3.273 3.166v0.005c0.045 1.72-1.448 3.187-3.261 3.2z"></path>
</svg>
