<!-- Generated by IcoMoon.io -->
<svg version="1.1" xmlns="http://www.w3.org/2000/svg" width="28" height="32" viewBox="0 0 28 32">
<path d="M14.826 0c0.571 0.078 1.15 0.149 1.721 0.25 6.514 1.23 11.375 6.877 11.375 13.658 0 2.88-0.877 5.555-2.378 7.773l0.031-0.049c-1.708 2.649-3.764 4.899-6.138 6.762l-0.059 0.045c-1.375 1.116-2.909 2.181-4.52 3.129l-0.175 0.095-0.485 0.258c-0.062 0.043-0.136 0.072-0.217 0.078h-0.002c-0.008 0.001-0.018 0.001-0.028 0.001-0.092 0-0.178-0.030-0.247-0.080l0.001 0.001c-3.912-2.277-5.031-3.356-5.031-3.356-1.602-1.285-3.026-2.659-4.315-4.152l-0.035-0.041c-1.801-1.972-3.156-4.384-3.884-7.054l-0.028-0.121c-0.273-1.010-0.43-2.17-0.43-3.367 0-3.404 1.269-6.512 3.36-8.876l-0.012 0.014c1.952-2.351 4.655-4.018 7.738-4.633l0.086-0.014c0.54-0.11 1.088-0.156 1.627-0.235 0.102 0 0.782-0.086 1.080-0.086s0.688 0 0.962 0zM13.942 1.995c-0.61 0.055-1.221 0.070-1.823 0.172-3.142 0.47-5.826 2.135-7.623 4.509l-0.021 0.029c-1.549 1.938-2.486 4.425-2.486 7.131 0 0.841 0.091 1.661 0.262 2.451l-0.014-0.076c0.537 2.358 1.587 4.416 3.030 6.133l-0.018-0.022c2.381 2.912 5.199 5.356 8.375 7.266l0.145 0.081c0.057 0.045 0.129 0.071 0.207 0.071s0.151-0.027 0.208-0.072l-0.001 0.001c1.88-1.157 3.508-2.367 5.023-3.703l-0.039 0.034c2.019-1.705 3.716-3.712 5.042-5.964l0.059-0.108c1.030-1.724 1.64-3.803 1.64-6.024 0-0.599-0.044-1.188-0.13-1.763l0.008 0.065c-0.913-5.799-5.864-10.185-11.843-10.21h-0.003zM16.117 17.62v3.505c0.005 0.051 0.008 0.111 0.008 0.171 0 1.033-0.837 1.87-1.87 1.87s-1.87-0.837-1.87-1.87c0-0.060 0.003-0.12 0.008-0.178l-0.001 0.008v-12.589c-0.008-0.066-0.013-0.142-0.013-0.219 0-1.028 0.834-1.862 1.862-1.862 0.085 0 0.168 0.006 0.249 0.017l-0.010-0.001c0.39-0.015 0.847-0.024 1.306-0.024 1.113 0 2.214 0.051 3.301 0.152l-0.139-0.010c2.633 0.429 4.619 2.687 4.619 5.409 0 0.159-0.007 0.316-0.020 0.471l0.001-0.020c-0.221 2.798-2.465 5.006-5.258 5.171l-0.015 0.001c-0.735 0.023-1.432 0-2.159 0zM16.117 13.895c0.728 0 1.401 0.047 2.073 0 0.88-0.102 1.567-0.81 1.635-1.692v-0.006c0.006-0.055 0.010-0.118 0.010-0.183 0-0.833-0.581-1.53-1.359-1.708l-0.012-0.002c-0.648-0.085-1.398-0.134-2.158-0.134-0.066 0-0.133 0-0.199 0.001h0.010zM10.492 14.866v6.259c0.005 0.051 0.008 0.111 0.008 0.171 0 1.033-0.837 1.87-1.87 1.87s-1.87-0.837-1.87-1.87c0-0.060 0.003-0.12 0.008-0.178l-0.001 0.008v-12.604c-0.005-0.051-0.008-0.111-0.008-0.171 0-1.033 0.837-1.87 1.87-1.87s1.87 0.837 1.87 1.87c0 0.060-0.003 0.12-0.008 0.178l0.001-0.008z"></path>
</svg>
