<!-- Generated by IcoMoon.io -->
<svg version="1.1" xmlns="http://www.w3.org/2000/svg" width="32" height="32" viewBox="0 0 32 32">
<path d="M25.333 23.333h-9.333c-1.471 0-2.667 1.196-2.667 2.667s1.196 2.667 2.667 2.667h9.333c1.471 0 2.667-1.196 2.667-2.667s-1.196-2.667-2.667-2.667zM25.333 14h-9.333c-1.471 0-2.667 1.196-2.667 2.667s1.196 2.667 2.667 2.667h9.333c1.471 0 2.667-1.196 2.667-2.667s-1.196-2.667-2.667-2.667zM25.333 4.667h-9.333c-1.471 0-2.667 1.196-2.667 2.667s1.196 2.667 2.667 2.667h9.333c1.471 0 2.667-1.196 2.667-2.667s-1.196-2.667-2.667-2.667zM10 26c0 1.841-1.492 3.333-3.333 3.333s-3.333-1.492-3.333-3.333c0-1.841 1.492-3.333 3.333-3.333s3.333 1.492 3.333 3.333zM10 16.667c0 1.841-1.492 3.333-3.333 3.333s-3.333-1.492-3.333-3.333c0-1.841 1.492-3.333 3.333-3.333s3.333 1.492 3.333 3.333zM10 7.333c0 1.841-1.492 3.333-3.333 3.333s-3.333-1.492-3.333-3.333c0-1.841 1.492-3.333 3.333-3.333s3.333 1.492 3.333 3.333z"></path>
</svg>
