<!-- Generated by IcoMoon.io -->
<svg version="1.1" xmlns="http://www.w3.org/2000/svg" width="32" height="32" viewBox="0 0 32 32">
<path d="M24 27.754v-13.375h-16v13.375h16zM24 11.754q1.063 0 1.875 0.781t0.813 1.844v13.375q0 1.063-0.813 1.844t-1.875 0.781h-16q-1.063 0-1.875-0.781t-0.813-1.844v-13.375q0-1.063 0.813-1.844t1.875-0.781h12.125v-2.688q0-1.688-1.219-2.906t-2.906-1.219-2.906 1.219-1.219 2.906h-2.563q0-2.75 1.969-4.719t4.719-1.969 4.719 1.969 1.969 4.719v2.688h1.313zM16 23.754q-1.063 0-1.875-0.813t-0.813-1.875 0.813-1.875 1.875-0.813 1.875 0.813 0.813 1.875-0.813 1.875-1.875 0.813z"></path>
</svg>
