<!-- Generated by IcoMoon.io -->
<svg version="1.1" xmlns="http://www.w3.org/2000/svg" width="30" height="32" viewBox="0 0 30 32">
<path d="M30.319 17.079c-0.97 0.84-1.939 1.681-2.974 2.457-0.84 0.711-1.745 1.325-2.715 1.842-0.162 0.065-0.356 0.194-0.517 0.065s-0.065-0.356-0.032-0.517c0.356-1.293 0.776-2.586 1.293-3.846 0.614-1.649 1.293-3.297 1.842-4.978 0.194-0.453 0.097-0.97-0.259-1.325-0.873-0.937-1.939-1.649-3.135-2.166-0.356-0.162-0.808-0.162-1.131 0.065-0.194 0.097-0.388 0.226-0.549 0.356-1.002 0.808-1.939 1.681-2.78 2.618-0.808 0.873-1.616 1.778-2.424 2.651 0 0.032 0 0.097-0.065 0.065s0-0.065 0.032-0.097c0.291-1.002 0.679-1.972 1.034-2.941 0.194-0.485 0.162-0.614-0.226-0.937-0.743-0.646-1.616-1.067-2.424-1.616-1.002-0.679-1.842-0.453-2.715 0.259-1.422 1.164-2.586 2.554-3.814 3.911-0.356 0.42-0.743 0.84-1.099 1.293-0.032-0.129 0-0.226 0.032-0.356 0.291-0.776 0.55-1.584 0.873-2.36 0.129-0.259 0.032-0.582-0.194-0.776-1.034-0.873-2.166-1.584-3.426-2.069-0.259-0.162-0.614-0.065-0.776 0.194 0 0.032-0.032 0.065-0.032 0.065-0.194 0.356-0.388 0.711-0.517 1.067-1.551 3.943-2.715 7.984-3.556 12.121-0.097 0.356 0 0.711 0.259 0.97 0.808 0.873 1.81 1.552 2.941 1.972 0.162 0.065 0.323 0.065 0.485 0.097 0.388 0.097 0.776-0.162 0.873-0.517 0 0 0 0 0 0 1.131-2.909 2.651-5.657 4.493-8.178 0.937-1.293 2.004-2.521 3.135-3.685 0.032 0.097 0 0.194-0.032 0.259-0.42 1.196-0.776 2.424-1.131 3.653-0.55 1.939-1.099 3.879-1.487 5.851-0.032 0.129 0 0.291 0.129 0.388 0.679 0.646 1.455 1.164 2.327 1.519 0.388 0.162 0.808 0.259 1.228 0.291 0.356 0.065 0.711-0.162 0.808-0.549 0.84-2.069 1.81-4.040 2.941-5.947 1.358-2.263 3.006-4.331 4.848-6.174 0-0.032 0.032-0.065 0.065-0.032s0 0.065 0 0.065c-0.032 0.129-0.065 0.226-0.097 0.323-1.196 3.038-2.23 6.174-3.038 9.341-0.129 0.485 0 1.034 0.356 1.39 0.614 0.743 1.422 1.293 2.327 1.616 0.42 0.162 0.873 0.194 1.325 0.065 0.517-0.162 1.002-0.356 1.487-0.646 1.616-0.937 3.135-2.036 4.525-3.265l1.487-3.846zM12.154 12.812l0.032-0.032c0 0.032 0 0.032-0.032 0.032z"></path>
</svg>
