<!-- Generated by IcoMoon.io -->
<svg version="1.1" xmlns="http://www.w3.org/2000/svg" width="32" height="32" viewBox="0 0 32 32">
<path d="M2.95 25.437l10.912 5.898c0.664 0.369 1.327 0.59 1.843 0.664 0.074 0 0.221 0 0.295 0s0.221 0 0.295 0c0.516-0.074 1.18-0.295 1.843-0.664l10.838-5.972c0.811-0.442 1.401-0.885 1.696-1.401 0.074-0.074 0.074-0.147 0.147-0.221 0.221-0.442 0.295-1.106 0.295-1.843v-11.871c0-0.737-0.074-1.401-0.295-1.843-0.074-0.074-0.074-0.147-0.147-0.221s-0.074-0.147-0.147-0.221c-0.295-0.369-0.885-0.811-1.548-1.18l-10.912-5.898c-0.664-0.369-1.327-0.59-1.843-0.664-0.074 0-0.221 0-0.295 0-0.59 0-1.327 0.221-2.138 0.664l-10.912 5.898c-0.664 0.369-1.18 0.737-1.548 1.18-0.074 0.074-0.147 0.147-0.147 0.221-0.074 0.074-0.074 0.147-0.147 0.221-0.074 0.516-0.147 1.106-0.147 1.843v11.944c0 0.885 0.147 1.622 0.442 2.064 0.221 0.516 0.885 0.959 1.622 1.401zM6.342 11.797c0-0.516 0.295-1.032 0.737-1.253l0.811-0.442c0.442-0.221 0.958-0.221 1.401 0l5.972 3.318c0.442 0.221 0.959 0.221 1.401 0l2.802-1.548c0.221-0.147 0.221-0.516 0-0.664l-6.267-3.392c-0.221-0.147-0.221-0.516 0-0.664l2.064-1.18c0.442-0.221 0.959-0.221 1.401 0l8.184 4.498c0.442 0.221 0.737 0.737 0.737 1.253v8.405c0 0.516-0.295 1.032-0.737 1.253l-1.917 1.032c-0.221 0.147-0.516-0.074-0.516-0.295v-7.594c0-0.295-0.295-0.442-0.516-0.295l-3.539 1.917c-0.442 0.221-0.737 0.737-0.737 1.253v7.594c0 0.295-0.147 0.516-0.369 0.664l-0.516 0.295c-0.442 0.221-0.959 0.221-1.401 0l-0.59-0.369c-0.221-0.147-0.369-0.369-0.369-0.664v-7.52c0-0.516-0.295-1.032-0.737-1.253l-7.226-3.981v-0.369zM6.342 14.451c0-0.295 0.295-0.442 0.516-0.295l2.286 1.253c0.221 0.147 0.369 0.369 0.369 0.664v6.193c0 0.295-0.295 0.442-0.516 0.295l-1.917-1.032c-0.442-0.221-0.737-0.737-0.737-1.253v-5.825z"></path>
</svg>
