<!-- Generated by IcoMoon.io -->
<svg version="1.1" xmlns="http://www.w3.org/2000/svg" width="40" height="32" viewBox="0 0 40 32">
<path d="M39 17.5c0.555 0 1-0.445 1-1v-1c0-0.555-0.445-1-1-1h-17.5v-2.5h4.5c1.101 0 2-0.899 2-2v-8c0-1.101-0.899-2-2-2h-12c-1.1 0-2 0.899-2 2v8c0 1.101 0.899 2 2 2h4.5v2.5h-17.5c-0.555 0-1 0.444-1 1v1c0 0.555 0.445 1 1 1h5.5v2.5h-4.5c-1.101 0-2 0.899-2 2v8c0 1.101 0.899 2 2 2h12c1.101 0 2-0.899 2-2v-8c0-1.101-0.899-2-2-2h-4.5v-2.5h21v2.5h-4.5c-1.101 0-2 0.899-2 2v8c0 1.101 0.899 2 2 2h12c1.101 0 2-0.899 2-2v-8c0-1.101-0.899-2-2-2h-4.5v-2.5h5.5zM12 24v4h-8v-4h8zM16 8v-4h8v4h-8zM36 24v4h-8v-4h8z"></path>
</svg>
