<!-- Generated by IcoMoon.io -->
<svg version="1.1" xmlns="http://www.w3.org/2000/svg" width="32" height="32" viewBox="0 0 32 32">
<path d="M2.228 8.375l-0.074-1.606c0-2.039 1.653-3.692 3.692-3.692v0h6.779c1.019 0 1.942 0.414 2.61 1.082l1.529 1.529c0.668 0.668 1.591 1.082 2.61 1.082h7.351c0 0 0 0 0 0 2.039 0 3.692 1.653 3.692 3.692 0 0.118-0.006 0.234-0.016 0.349l0.001-0.015-1.176 12.923c-0.177 1.89-1.755 3.357-3.676 3.358h-19.104c-1.921-0.001-3.499-1.468-3.675-3.343l-0.001-0.015-1.176-12.923c-0.010-0.101-0.015-0.218-0.015-0.337 0-0.778 0.242-1.5 0.655-2.094l-0.008 0.012zM5.274 8.615c0 0 0 0 0 0-1.020 0-1.846 0.827-1.846 1.846 0 0.059 0.003 0.116 0.008 0.173l-0.001-0.007 1.176 12.923c0.088 0.945 0.877 1.679 1.837 1.68h19.104c0.96-0.001 1.749-0.735 1.836-1.673l0.001-0.007 1.176-12.923c0.005-0.050 0.008-0.108 0.008-0.166 0-1.020-0.827-1.846-1.846-1.846 0 0 0 0 0 0h-21.452zM13.932 5.464c-0.334-0.334-0.796-0.541-1.306-0.541-0.001 0-0.001 0-0.002 0h-6.779c0 0 0 0 0 0-1.007 0-1.826 0.807-1.846 1.809v0.002l0.011 0.257c0.395-0.144 0.82-0.222 1.263-0.222h9.962l-1.305-1.305z"></path>
</svg>
