<!-- Generated by IcoMoon.io -->
<svg version="1.1" xmlns="http://www.w3.org/2000/svg" width="61" height="32" viewBox="0 0 61 32">
<path d="M15.725 31.512c-0.045 0-0.084-0.011-0.129-0.034-0.039-0.022-0.062-0.056-0.062-0.101v-2.947c0-0.067 0.022-0.118 0.062-0.14 0.039-0.028 0.084-0.039 0.129-0.039 0.051 0 0.090 0.011 0.123 0.028s0.067 0.045 0.095 0.079 0.056 0.079 0.084 0.129l0.707 1.342 0.707-1.342c0.028-0.056 0.056-0.095 0.084-0.129s0.062-0.062 0.095-0.079 0.073-0.028 0.118-0.028c0.051 0 0.095 0.011 0.129 0.039 0.039 0.028 0.056 0.073 0.056 0.14v2.947c0 0.045-0.017 0.079-0.056 0.101s-0.084 0.034-0.129 0.034-0.090-0.011-0.129-0.034c-0.039-0.022-0.056-0.056-0.056-0.101v-2.341l-0.679 1.269c-0.022 0.034-0.045 0.062-0.067 0.079s-0.051 0.022-0.079 0.022c-0.022 0-0.045-0.006-0.067-0.022s-0.051-0.045-0.067-0.079l-0.674-1.286v2.364c0 0.045-0.017 0.079-0.056 0.101s-0.084 0.034-0.129 0.034v0zM13.833 31.54c-0.18 0-0.342-0.034-0.488-0.095s-0.258-0.168-0.342-0.309-0.129-0.331-0.129-0.567v-1.342c0-0.236 0.045-0.427 0.129-0.567s0.202-0.241 0.342-0.309 0.309-0.095 0.488-0.095 0.348 0.034 0.488 0.095c0.146 0.062 0.264 0.168 0.348 0.309s0.129 0.331 0.129 0.567v1.342c0 0.236-0.045 0.427-0.129 0.567s-0.202 0.241-0.348 0.309-0.309 0.095-0.488 0.095zM13.833 31.197c0.185 0 0.331-0.051 0.432-0.152s0.157-0.264 0.157-0.483v-1.342c0-0.219-0.051-0.376-0.157-0.483s-0.247-0.152-0.432-0.152-0.331 0.051-0.432 0.152c-0.101 0.101-0.152 0.264-0.152 0.483v1.342c0 0.219 0.051 0.376 0.152 0.483s0.247 0.152 0.432 0.152zM11.323 31.54c-0.174 0-0.331-0.034-0.477-0.095s-0.264-0.168-0.348-0.309-0.129-0.331-0.129-0.567v-1.342c0-0.236 0.045-0.427 0.129-0.567s0.202-0.247 0.348-0.309 0.303-0.095 0.477-0.095c0.202 0 0.376 0.034 0.517 0.101s0.253 0.163 0.331 0.281 0.118 0.247 0.118 0.393c0 0.084-0.017 0.14-0.045 0.163-0.028 0.028-0.079 0.039-0.14 0.039s-0.107-0.011-0.135-0.034-0.051-0.056-0.051-0.095c0-0.045-0.011-0.095-0.022-0.152s-0.039-0.112-0.079-0.168c-0.039-0.056-0.095-0.101-0.174-0.135s-0.18-0.056-0.303-0.056c-0.191 0-0.337 0.051-0.438 0.152s-0.152 0.264-0.152 0.483v1.342c0 0.219 0.051 0.376 0.157 0.483s0.253 0.152 0.449 0.152c0.123 0 0.225-0.017 0.298-0.056 0.073-0.034 0.129-0.079 0.163-0.135s0.062-0.112 0.079-0.174c0.017-0.062 0.022-0.118 0.028-0.174 0-0.045 0.022-0.079 0.056-0.095s0.079-0.028 0.135-0.028c0.062 0 0.112 0.011 0.14 0.045 0.028 0.028 0.045 0.084 0.045 0.168 0 0.146-0.039 0.281-0.118 0.399s-0.191 0.213-0.337 0.286c-0.146 0.067-0.314 0.107-0.517 0.107v0 0zM8.191 31.512c-0.045 0-0.079-0.011-0.118-0.034-0.034-0.022-0.056-0.056-0.056-0.101v-2.998c0-0.045 0.017-0.079 0.056-0.101s0.073-0.034 0.118-0.034h1.589c0.051 0 0.079 0.017 0.101 0.056s0.028 0.073 0.028 0.112c0 0.045-0.011 0.084-0.034 0.123-0.022 0.034-0.056 0.056-0.095 0.056h-1.387v1.134h0.696c0.039 0 0.073 0.017 0.095 0.051s0.034 0.067 0.034 0.112c0 0.034-0.011 0.067-0.028 0.101s-0.051 0.051-0.101 0.051h-0.696v1.14h1.387c0.039 0 0.073 0.017 0.095 0.051s0.034 0.073 0.034 0.123c0 0.039-0.011 0.079-0.028 0.112s-0.051 0.056-0.101 0.056h-1.589s0 0 0 0zM5.968 31.512c-0.045 0-0.079-0.011-0.118-0.034-0.034-0.022-0.056-0.056-0.056-0.101v-3.003c0-0.045 0.022-0.079 0.062-0.095 0.039-0.022 0.084-0.028 0.129-0.028 0.051 0 0.090 0.011 0.129 0.028 0.039 0.022 0.056 0.056 0.056 0.095v2.796h1.224c0.045 0 0.073 0.017 0.090 0.051s0.028 0.073 0.028 0.118-0.011 0.079-0.028 0.118-0.051 0.056-0.090 0.056h-1.426zM3.542 31.512c-0.045 0-0.079-0.011-0.118-0.034-0.034-0.022-0.056-0.056-0.056-0.101v-2.998c0-0.045 0.017-0.079 0.056-0.101s0.073-0.034 0.118-0.034h1.589c0.051 0 0.079 0.017 0.101 0.056s0.028 0.073 0.028 0.112c0 0.045-0.011 0.084-0.034 0.123-0.022 0.034-0.056 0.056-0.095 0.056h-1.387v1.134h0.696c0.039 0 0.073 0.017 0.095 0.051s0.034 0.067 0.034 0.112c0 0.034-0.011 0.067-0.028 0.101s-0.051 0.051-0.101 0.051h-0.696v1.14h1.387c0.039 0 0.073 0.017 0.095 0.051s0.034 0.073 0.034 0.123c0 0.039-0.011 0.079-0.028 0.112s-0.051 0.056-0.101 0.056h-1.589s0 0 0 0zM1.825 31.512c-0.051 0-0.090-0.011-0.129-0.034s-0.056-0.056-0.056-0.101v-2.779h-0.724c-0.039 0-0.067-0.017-0.095-0.056s-0.034-0.079-0.034-0.123c0-0.039 0.011-0.079 0.028-0.118 0.022-0.034 0.056-0.056 0.095-0.056h1.825c0.045 0 0.079 0.017 0.095 0.056s0.028 0.073 0.028 0.118c0 0.045-0.011 0.084-0.028 0.123s-0.056 0.056-0.095 0.056h-0.724v2.779c0 0.045-0.017 0.079-0.056 0.101s-0.084 0.034-0.129 0.034v0zM60.581 16.23h-2.891v-15.77h2.891v15.764zM52.188 15.085c-0.438 0.444-0.932 0.792-1.477 1.033s-1.185 0.365-1.92 0.365c-0.522 0-1.033-0.084-1.533-0.247-0.494-0.163-0.932-0.41-1.308-0.735s-0.679-0.724-0.904-1.196-0.342-1.011-0.342-1.617 0.118-1.173 0.359-1.628c0.241-0.455 0.567-0.825 0.977-1.112s0.887-0.5 1.432-0.634c0.545-0.135 1.117-0.208 1.712-0.208s1.134 0.051 1.656 0.152c0.522 0.101 0.977 0.241 1.359 0.432v-0.281c0-0.747-0.258-1.286-0.775-1.606-0.517-0.326-1.235-0.483-2.156-0.483-0.623 0-1.241 0.067-1.858 0.208-0.618 0.135-1.235 0.354-1.858 0.657v-2.285c0.567-0.241 1.207-0.455 1.92-0.634s1.505-0.269 2.369-0.269c0.808 0 1.533 0.095 2.178 0.292s1.19 0.483 1.634 0.865c0.444 0.382 0.792 0.853 1.033 1.426s0.359 1.224 0.359 1.976v6.815l-2.869-1.274zM52.205 11.396c-0.269-0.146-0.589-0.275-0.954-0.387-0.371-0.118-0.792-0.174-1.274-0.174-0.309 0-0.618 0.039-0.915 0.107s-0.556 0.185-0.775 0.342c-0.219 0.157-0.399 0.348-0.533 0.573s-0.202 0.483-0.202 0.786 0.062 0.567 0.18 0.786c0.118 0.225 0.281 0.41 0.477 0.561s0.432 0.264 0.702 0.342 0.55 0.118 0.848 0.118c0.511 0 0.966-0.090 1.37-0.269s0.764-0.444 1.072-0.786v-2.004zM37.844 7.601h-2.145l5.013-6.018v3.604h2.7v2.414h-2.7v5.199c0 0.359 0.079 0.646 0.241 0.853s0.421 0.314 0.775 0.314c0.197 0 0.393-0.022 0.584-0.073s0.393-0.123 0.606-0.225v2.352c-0.269 0.146-0.561 0.258-0.881 0.337s-0.668 0.118-1.050 0.118c-0.949 0-1.712-0.275-2.285-0.82s-0.859-1.387-0.859-2.526v-5.519zM34.38 8.034c-0.084-0.028-0.18-0.051-0.286-0.067-0.107-0.011-0.225-0.022-0.348-0.022-0.427 0-0.831 0.067-1.224 0.208-0.393 0.135-0.73 0.348-1.033 0.634-0.298 0.286-0.533 0.657-0.702 1.1s-0.258 0.982-0.258 1.617v4.721h-2.908v-11.037l2.931 1.768c0.354-0.618 0.808-1.1 1.359-1.443s1.196-0.516 1.931-0.516c0.101 0 0.191 0.006 0.275 0.022s0.168 0.028 0.253 0.045v2.975zM25.072 12.929c-0.298 0.707-0.707 1.319-1.229 1.841s-1.151 0.943-1.881 1.252c-0.73 0.309-1.527 0.466-2.392 0.466s-1.634-0.152-2.347-0.455c-0.713-0.303-1.336-0.713-1.869-1.241-0.533-0.522-0.943-1.134-1.229-1.836-0.292-0.696-0.438-1.443-0.438-2.234s0.146-1.561 0.438-2.262c0.292-0.702 0.702-1.319 1.229-1.841 0.533-0.522 1.157-0.938 1.881-1.241s1.516-0.455 2.38-0.455 1.639 0.152 2.369 0.455 1.359 0.713 1.881 1.229c0.522 0.516 0.932 1.123 1.224 1.825 0.292 0.696 0.438 1.448 0.438 2.251s-0.146 1.538-0.444 2.246v0zM22.439 9.432c-0.157-0.404-0.371-0.752-0.646-1.044s-0.601-0.528-0.977-0.702-0.792-0.258-1.241-0.258-0.87 0.084-1.241 0.258c-0.376 0.174-0.696 0.404-0.954 0.702-0.264 0.292-0.466 0.64-0.618 1.033-0.146 0.399-0.225 0.814-0.225 1.263s0.079 0.893 0.236 1.291c0.157 0.404 0.371 0.752 0.64 1.044s0.595 0.528 0.977 0.702 0.792 0.258 1.229 0.258 0.865-0.084 1.241-0.258c0.376-0.174 0.696-0.41 0.966-0.713s0.477-0.651 0.629-1.044c0.146-0.393 0.225-0.814 0.225-1.263s-0.079-0.87-0.236-1.274v0zM0.786 1.089h5.608c0.865 0 1.651 0.107 2.369 0.326 0.713 0.213 1.325 0.539 1.83 0.96 0.505 0.427 0.887 0.938 1.156 1.544s0.404 1.291 0.404 2.072c0 0.82-0.146 1.544-0.444 2.178s-0.713 1.162-1.241 1.594c-0.533 0.432-1.162 0.758-1.892 0.982s-1.51 0.337-2.347 0.337h-2.442v5.176h-2.998v-15.169zM3.784 8.612h2.38c0.949 0 1.69-0.225 2.218-0.668 0.533-0.444 0.797-1.055 0.797-1.836s-0.264-1.415-0.786-1.836c-0.522-0.415-1.269-0.623-2.234-0.623h-2.38v4.963zM60.34 24.236c-0.168 0.393-0.399 0.73-0.685 1.022s-0.646 0.522-1.055 0.691-0.853 0.258-1.331 0.258-0.909-0.084-1.314-0.253-0.747-0.393-1.044-0.679c-0.298-0.286-0.522-0.623-0.685-1.011s-0.241-0.803-0.241-1.258 0.079-0.87 0.241-1.269c0.163-0.393 0.393-0.735 0.685-1.033 0.298-0.292 0.646-0.522 1.050-0.685 0.404-0.168 0.842-0.253 1.319-0.253s0.926 0.084 1.331 0.253 0.752 0.393 1.050 0.679c0.298 0.286 0.522 0.629 0.685 1.016s0.241 0.808 0.241 1.263-0.084 0.859-0.253 1.252v0zM59.183 22.159c-0.101-0.264-0.247-0.488-0.432-0.685s-0.404-0.348-0.657-0.46-0.533-0.168-0.831-0.168-0.584 0.056-0.837 0.168c-0.253 0.112-0.46 0.264-0.634 0.455s-0.314 0.421-0.41 0.679-0.152 0.545-0.152 0.842 0.051 0.595 0.157 0.853 0.247 0.488 0.427 0.679c0.18 0.191 0.393 0.342 0.651 0.455 0.253 0.112 0.528 0.168 0.82 0.168s0.578-0.056 0.831-0.168 0.472-0.269 0.657-0.466c0.185-0.202 0.326-0.427 0.427-0.685s0.152-0.533 0.152-0.825-0.051-0.578-0.157-0.842v0zM51.318 19.947c0.269 0.101 0.5 0.258 0.691 0.455 0.191 0.202 0.337 0.449 0.444 0.752 0.101 0.298 0.157 0.64 0.157 1.022v3.896h-1.252v-3.52c0-0.314-0.039-0.578-0.118-0.792s-0.185-0.382-0.314-0.505c-0.129-0.123-0.281-0.219-0.449-0.275s-0.337-0.090-0.505-0.090-0.337 0.028-0.517 0.079c-0.18 0.056-0.342 0.146-0.494 0.275s-0.275 0.298-0.376 0.511c-0.101 0.213-0.152 0.477-0.152 0.792v3.52h-1.252v-6.142l1.274 0.797c0.219-0.275 0.488-0.5 0.808-0.674 0.326-0.174 0.707-0.264 1.151-0.264 0.326 0 0.623 0.051 0.893 0.157v0zM43.806 25.134c0.208-0.051 0.404-0.118 0.584-0.202s0.354-0.18 0.505-0.286c0.152-0.107 0.292-0.225 0.421-0.348v1.224c-0.14 0.107-0.298 0.208-0.466 0.292-0.168 0.090-0.348 0.163-0.539 0.219s-0.382 0.101-0.584 0.135c-0.202 0.034-0.415 0.051-0.629 0.051-0.455 0-0.881-0.079-1.269-0.236s-0.724-0.376-1.011-0.662c-0.286-0.281-0.511-0.618-0.668-1.011s-0.236-0.82-0.236-1.286 0.073-0.887 0.213-1.28c0.14-0.393 0.342-0.735 0.606-1.033 0.264-0.292 0.578-0.522 0.943-0.685s0.775-0.253 1.224-0.253 0.859 0.079 1.213 0.241c0.348 0.163 0.651 0.382 0.898 0.657 0.253 0.275 0.449 0.595 0.595 0.96s0.241 0.752 0.281 1.162l-4.643 1.151c0.152 0.365 0.382 0.668 0.702 0.904s0.724 0.354 1.224 0.354c0.225 0 0.444-0.022 0.651-0.073v0zM41.157 23.012l3.469-0.898c-0.107-0.376-0.314-0.685-0.612-0.938s-0.668-0.376-1.112-0.376c-0.292 0-0.55 0.062-0.775 0.18-0.225 0.123-0.41 0.281-0.561 0.483s-0.264 0.427-0.342 0.679c-0.079 0.253-0.118 0.517-0.118 0.78l0.051 0.090zM39.023 21.603c-0.225-0.23-0.477-0.415-0.752-0.55s-0.573-0.202-0.887-0.202c-0.281 0-0.545 0.056-0.786 0.163s-0.449 0.258-0.618 0.444c-0.168 0.185-0.303 0.41-0.404 0.662s-0.152 0.533-0.152 0.831 0.051 0.573 0.157 0.837c0.101 0.269 0.247 0.5 0.427 0.702s0.387 0.359 0.629 0.477c0.241 0.118 0.505 0.174 0.786 0.174 0.326 0 0.629-0.067 0.904-0.202 0.281-0.135 0.533-0.314 0.758-0.55v1.314c-0.241 0.135-0.511 0.253-0.808 0.348s-0.629 0.152-0.988 0.152c-0.444 0-0.853-0.084-1.229-0.253s-0.707-0.393-0.988-0.674-0.5-0.618-0.657-1.005-0.236-0.803-0.236-1.258 0.079-0.859 0.23-1.246c0.152-0.393 0.371-0.73 0.651-1.016s0.612-0.517 1.005-0.685c0.393-0.168 0.831-0.258 1.314-0.258 0.281 0 0.573 0.039 0.87 0.112s0.556 0.185 0.78 0.337v1.347s0 0 0 0zM31.658 25.448c-0.275 0.253-0.573 0.438-0.893 0.567s-0.691 0.197-1.106 0.197c-0.309 0-0.606-0.051-0.898-0.146s-0.556-0.241-0.786-0.432c-0.23-0.191-0.421-0.427-0.567-0.707s-0.219-0.601-0.219-0.966 0.079-0.702 0.23-0.96c0.152-0.258 0.354-0.466 0.601-0.629s0.528-0.275 0.848-0.342c0.32-0.067 0.64-0.101 0.954-0.101 0.359 0 0.696 0.028 1.011 0.095 0.314 0.062 0.601 0.163 0.848 0.303v-0.213c0-0.466-0.163-0.797-0.488-0.988s-0.752-0.286-1.286-0.286c-0.393 0-0.78 0.045-1.162 0.135s-0.758 0.241-1.123 0.449v-1.1c0.298-0.123 0.657-0.241 1.072-0.354s0.865-0.168 1.347-0.168c0.399 0 0.775 0.051 1.123 0.157s0.651 0.258 0.909 0.455c0.258 0.202 0.46 0.449 0.612 0.752s0.225 0.651 0.225 1.050v3.885l-1.263-0.651zM31.68 23.236c-0.191-0.101-0.415-0.197-0.674-0.286s-0.567-0.135-0.926-0.135c-0.202 0-0.399 0.022-0.601 0.067s-0.376 0.118-0.533 0.219c-0.152 0.101-0.281 0.225-0.376 0.382-0.095 0.152-0.146 0.337-0.146 0.556s0.039 0.387 0.123 0.545c0.084 0.152 0.197 0.281 0.342 0.376s0.314 0.168 0.5 0.225 0.382 0.079 0.595 0.079c0.376 0 0.702-0.067 0.977-0.202s0.511-0.314 0.713-0.55v-1.274zM24.612 26.072v-3.52c0-0.573-0.112-0.994-0.337-1.263-0.225-0.264-0.539-0.399-0.938-0.399-0.23 0-0.444 0.045-0.623 0.135-0.185 0.090-0.337 0.213-0.455 0.371-0.123 0.152-0.213 0.331-0.275 0.522s-0.095 0.404-0.095 0.629v3.52h-1.246v-3.52c0-0.23-0.022-0.449-0.067-0.657-0.045-0.202-0.118-0.376-0.219-0.522s-0.23-0.264-0.399-0.348c-0.168-0.090-0.365-0.129-0.601-0.129s-0.427 0.045-0.606 0.129-0.331 0.208-0.455 0.359c-0.123 0.152-0.219 0.331-0.281 0.533s-0.095 0.41-0.095 0.634v3.52h-1.252v-6.131l1.224 0.752c0.225-0.309 0.505-0.533 0.842-0.679s0.691-0.219 1.067-0.219c0.399 0 0.764 0.090 1.095 0.264s0.578 0.455 0.758 0.848c0.208-0.359 0.494-0.634 0.859-0.825s0.78-0.286 1.235-0.286c0.359 0 0.668 0.062 0.932 0.18 0.264 0.123 0.483 0.292 0.662 0.505 0.18 0.219 0.309 0.466 0.393 0.758 0.084 0.286 0.123 0.595 0.123 0.932v3.907h-1.252zM13.777 25.448c-0.275 0.253-0.573 0.438-0.893 0.567s-0.691 0.197-1.106 0.197c-0.309 0-0.606-0.051-0.898-0.146s-0.556-0.241-0.786-0.432c-0.23-0.191-0.421-0.427-0.567-0.707s-0.219-0.601-0.219-0.966 0.079-0.702 0.23-0.96c0.152-0.258 0.354-0.466 0.601-0.629s0.528-0.275 0.848-0.342c0.32-0.067 0.64-0.101 0.954-0.101 0.359 0 0.696 0.028 1.011 0.095 0.314 0.062 0.601 0.163 0.848 0.303v-0.213c0-0.466-0.163-0.797-0.488-0.988s-0.752-0.286-1.286-0.286c-0.393 0-0.78 0.045-1.162 0.135s-0.758 0.241-1.123 0.449v-1.1c0.298-0.123 0.657-0.241 1.072-0.354s0.865-0.168 1.347-0.168c0.399 0 0.775 0.051 1.123 0.157s0.651 0.258 0.909 0.455c0.258 0.202 0.46 0.449 0.612 0.752s0.225 0.651 0.225 1.050v3.885l-1.263-0.651zM13.799 23.236c-0.191-0.101-0.415-0.197-0.674-0.286s-0.567-0.135-0.926-0.135c-0.202 0-0.399 0.022-0.601 0.067s-0.376 0.118-0.533 0.219c-0.152 0.101-0.281 0.225-0.376 0.382-0.095 0.152-0.146 0.337-0.146 0.556s0.039 0.387 0.123 0.545c0.084 0.152 0.197 0.281 0.342 0.376s0.314 0.168 0.5 0.225 0.382 0.079 0.595 0.079c0.376 0 0.702-0.067 0.977-0.202s0.511-0.314 0.713-0.55v-1.274zM0.786 17.28h2.874c0.685 0 1.314 0.101 1.898 0.314 0.584 0.208 1.083 0.505 1.505 0.887s0.747 0.848 0.982 1.387c0.23 0.539 0.348 1.14 0.348 1.797s-0.112 1.229-0.337 1.768c-0.225 0.539-0.545 1.005-0.96 1.398-0.415 0.399-0.915 0.702-1.499 0.915-0.584 0.219-1.235 0.326-1.959 0.326h-2.846v-8.792zM2.088 24.921h1.521c0.556 0 1.044-0.079 1.465-0.236s0.775-0.382 1.067-0.668c0.292-0.286 0.511-0.629 0.668-1.022 0.152-0.393 0.23-0.831 0.23-1.302 0-0.399-0.067-0.792-0.197-1.179s-0.32-0.735-0.567-1.044-0.556-0.556-0.926-0.741c-0.365-0.185-0.78-0.281-1.246-0.281h-2.021v6.479z"></path>
</svg>
