<!-- Generated by IcoMoon.io -->
<svg version="1.1" xmlns="http://www.w3.org/2000/svg" width="32" height="32" viewBox="0 0 32 32">
<path d="M11.006 15.483h-1.091c-0.005 0.365-0.015 0.72-0.021 1.091 0.057 0 0.113 0.010 0.17 0.010h0.751c0.067 0 0.134 0 0.201 0.010v2.202c-0.036 0-0.067 0-0.098 0-0.18 0-0.355 0-0.535 0h-1.451c-0.036 0-0.077 0-0.129 0v1.086s0.046 0 0.072 0c0.355 0 0.71 0 1.065 0h1.966c0.062 0 0.108 0.021 0.159 0.062 0.062 0.057 0.134 0.098 0.206 0.144 0.021 0.015 0.051 0.021 0.077 0.026 0.154 0.031 0.304 0.015 0.453-0.026 0.129-0.036 0.262-0.072 0.401-0.108v0.9c0 0.098 0.005 0.108 0.103 0.108h1.009v1.106c-0.731 0.010-1.461 0.010-2.197 0.010-0.021 1.816 0 3.628-0.015 5.434-0.077 0.026-0.756 0.036-1.086 0.015-0.005-0.18 0-0.36-0.010-0.545 0-0.18 0-0.36-0.005-0.551-0.36-0.015-0.72-0.010-1.086-0.015-0.026-0.715-0.010-1.42-0.015-2.141h1.106v-1.086c-0.087-0.021-1.024-0.021-1.101 0-0.005 0.355-0.010 0.71-0.021 1.075h-1.086v-2.192h2.207c0-0.031 0.005-0.051 0.005-0.072 0-0.314-0.005-0.628-0.010-0.942 0-0.082-0.005-0.093-0.087-0.093h-1.966c-0.144 0-0.144-0.015-0.149 0.144 0 0.298-0.010 0.602-0.015 0.9v0.051c-0.355 0.010-0.715 0.010-1.081 0 0-0.365-0.010-0.726-0.010-1.096-0.355-0.010-0.71-0.015-1.070-0.015-0.021 0.37-0.031 0.736-0.031 1.111 0.376 0.010 0.741 0.015 1.117 0.026 0 0.365-0.010 0.72-0.015 1.081h-2.135v-1.096h-1.096v-2.146s0-0.041-0.005-0.072h-2.202v-1.101h1.081c0.021-0.067 0.021-3.226 0.005-3.314h-2.177c-0.026 0.736 0 1.461-0.015 2.187-0.087 0.031-0.936 0.041-1.101 0.015 0-0.041-0.010-0.087-0.010-0.134v-3.17c0.37 0 0.731 0 1.101-0.005 0.021-0.185 0.010-0.37 0.015-0.551v-0.551c0.365-0.015 0.731-0.015 1.096 0v-1.096c0.37 0 0.731-0.010 1.101-0.015v-1.034c-0.036 0-0.072-0.005-0.108-0.005h-3.2v-2.192h1.111v1.070c0.072 0.026 0.916 0.036 1.096 0.015v-1.086h1.111c-0.005 0.36-0.010 0.715-0.005 1.086 0.37 0.010 0.736 0 1.101 0.010v1.091c0.376 0 0.741 0.005 1.117 0.010v1.636c0 0.54-0.010 1.075 0.005 1.621 0.35 0 0.695 0.010 1.045 0.010-0.005 0.36-0.015 0.715-0.021 1.075-0.036 0-0.067 0.005-0.098 0.005h-2.032v-2.115c0-0.031-0.005-0.062-0.010-0.093h-2.182c-0.026 0.113-0.036 1.014-0.010 1.106h1.086v1.096c0.051 0 0.093 0.005 0.134 0.005h0.983v0.216c0 1.353 0 2.712-0.005 4.065v0.134c0.046 0 0.093 0.010 0.134 0.010 0.298 0 0.592 0 0.89 0h0.082v1.096h1.045v-1.091c0.36 0 0.726-0.010 1.096-0.015 0.010-0.365-0.010-0.726 0-1.091h-2.146c-0.005-0.37 0.005-0.731 0-1.106 0.545-0.015 1.081-0.010 1.621-0.015h1.626c0.005-0.37 0-0.731-0.005-1.101h-2.182v-1.101c0.36-0.005 0.72 0 1.091-0.010v-1.086h-1.091v-1.101c0.144-0.026 2.099-0.026 2.197 0v1.081c0.046 0 0.082 0.010 0.123 0.010h2.012c0.031 0 0.067 0.005 0.098 0.010v0c0 0.036-0.010 0.072-0.015 0.103-0.005 0.309-0.010 0.617-0.015 0.926v0.057h-0.021zM20.896 15.483s0 0.026 0 0.041v2.156c0.057 0.015 3.113 0.021 3.288 0 0-0.026 0-0.057 0-0.087v-1.024c0.329 0 0.653 0 0.983 0 0.036 0 0.077 0 0.123 0v2.207c0.37 0 0.731 0 1.096 0v1.081c0.046 0 0.093 0.010 0.139 0.010 0.278 0 0.556 0 0.834 0.010 0.041 0 0.087 0 0.129 0v1.081c-0.365 0-0.72 0-1.091 0.010-0.010 0.365-0.015 0.72-0.015 1.091 0.041 0 0.077 0.010 0.113 0.015 0.288 0 0.576 0.010 0.864 0.021h0.118c0 0.726 0.010 1.446 0.010 2.177 0.093 0.015 0.185 0.010 0.273 0.010h0.556c0.093 0 0.18 0 0.278 0.010v2.135c-0.365 0-0.726 0-1.096 0.010 0 0.057-0.010 0.103-0.010 0.154v2.043c0.036 0 0.067 0 0.093 0 0.334 0 0.674 0 1.009 0h0.026c0 0.247 0 0.494-0.010 0.741v0.36h-1.081c-0.031 0.082-0.041 0.988-0.015 1.117h1.096v1.086c-0.082 0.026-3.118 0.036-3.309 0.010v-1.096c0.36 0 0.72 0 1.096-0.010v-1.096c-0.36-0.021-0.726-0.015-1.096-0.015v-2.187h-3.303c-0.015-0.726 0-1.436 0-2.156h-1.091c-0.010 0.71 0 1.42-0.015 2.141h-1.039v-1.086c-0.036 0-0.067-0.010-0.098-0.010-0.545 0-1.091-0.010-1.631-0.015h-0.458c-0.026-0.34-0.021-0.679-0.026-1.024-0.031 0-0.051 0-0.072 0h-0.942c-0.067 0-0.072 0-0.072 0.072 0 0.149-0.010 0.298-0.010 0.448v0.509c0.365 0 0.731 0 1.101 0.010v2.197c-0.108 0.026-2.048 0.026-2.202 0v-2.192c-0.046 0-0.082-0.010-0.118-0.010h-2.007s-0.057 0-0.087 0v-1.019c0.185-0.015 0.365-0.010 0.545-0.010h1.662v-1.101c0.37-0.010 0.731-0.010 1.101 0 0-0.365 0.010-0.72 0.015-1.091 0.365-0.010 0.72 0 1.091 0v-1.111h1.111v-2.187c0.051-0.021 0.998-0.031 1.101-0.010 0 0.731 0 1.461-0.010 2.202h-1.070c0 0.37-0.010 0.726-0.021 1.096 0.37 0.015 0.731 0.010 1.091 0.021v1.081h-0.535c-0.175 0-0.355 0-0.535 0.010-0.010 0.37-0.015 0.726-0.026 1.091 0.031 0 0.057 0.010 0.082 0.010 0.329 0 0.653 0 0.983 0 0 0 0.010 0 0.026 0 0-0.18 0-0.36 0-0.54v-0.561c0.715-0.015 1.425 0.010 2.146 0v-1.091c-0.365 0-0.731-0.010-1.096-0.015v-1.091h1.091s0-0.036 0-0.051v-0.998s0-0.051-0.010-0.072v0c0.345 0 0.689 0.010 1.034 0.015 0.031 0 0.057 0 0.087 0.010v1.091c0.139 0.026 2.115 0.021 2.202 0v-1.091h-1.091c0-0.731 0-1.466-0.010-2.202h-3.298c0 0.031-0.010 0.062-0.010 0.093v0.401c0 0.201-0.010 0.401-0.015 0.597v0s-0.041 0.010-0.067 0.010h-0.89s-0.041 0-0.072 0c-0.010-0.365 0-0.726 0-1.086-0.283 0-0.556-0.010-0.834-0.015 0.010-0.057 0.036-0.087 0.067-0.113 0.165-0.144 0.283-0.319 0.396-0.499 0.196-0.314 0.345-0.653 0.453-1.009 0.051-0.175 0.082-0.36 0.118-0.545 0.036-0.18 0.051-0.365 0.046-0.545 0-0.18-0.010-0.36-0.015-0.54v-0.051s0.051-0.005 0.077-0.005h0.648c0.031 0 0.067 0.005 0.098 0.010v0-0.036zM23.093 23.222s0 0.031 0 0.041c0 1.045 0 2.089-0.010 3.128 0 0.015 0 0.026 0 0.041v0s0 0 0.015 0.021h3.288v-3.247h-0.077c-0.432 0-0.864 0-1.297 0h-1.755c-0.057 0-0.108 0-0.165 0v0zM13.209 3.319c0.37 0 0.736 0.010 1.117 0v-1.106c0.37-0.015 0.736-0.005 1.096-0.015v-1.086c-0.736 0-1.466 0-2.202-0.010-0.010-0.37-0.010-0.731 0-1.101 0.741 0 1.477-0.005 2.213 0v1.096h2.202c-0.010-0.365-0.015-0.731 0-1.101h2.202v1.091c0.35 0.021 0.695 0 1.050 0.021v0.093c0 0.288 0 0.576-0.010 0.864 0 0.041 0 0.082 0.010 0.123-0.345 0-0.684 0.005-1.024 0.010-0.031 0.129-0.036 1.009 0 1.101h1.019c0-0.082 0-0.159 0-0.237 0-0.293 0-0.581 0-0.875h2.197v1.111h-1.086c-0.010 0.108 0 0.206 0 0.298v0.864c-0.365 0-0.72 0.005-1.075 0.010-0.021 0.067-0.031 1.009-0.015 1.101 0.731 0.021 1.461 0.005 2.187 0.015v2.187h-0.087c-0.309 0-0.617-0.005-0.926-0.010h-0.082c0-0.36 0-0.726 0-1.086-0.16-0.026-1.003-0.010-1.096 0.026v1.060h1.101v1.111c0.37 0.021 0.731 0 1.101 0.026v1.075c0.046 0 0.087 0.005 0.129 0.005 0.638 0 1.271 0 1.909 0.005h0.175v1.091h2.048c0.051 0 0.103 0.005 0.154 0.010 0 0.71-0.010 1.42-0.015 2.125-0.072 0.026-0.998 0.015-1.086-0.010v-1.081c-1.106 0-2.202 0.010-3.309 0-0.021-0.345-0.015-0.684-0.015-1.039-0.36-0.005-0.715 0-1.086-0.005 0-0.365 0-0.726-0.010-1.086-0.118-0.021-2.069-0.015-2.141 0.010v1.086h-1.101v-2.187c-0.108-0.015-1.039-0.031-1.096-0.015 0 0.036-0.010 0.072-0.010 0.108 0 0.669 0 1.338-0.010 2.007v0.077h-2.187c-0.010-0.252 0-0.494-0.005-0.731v-1.451h-2.213c-0.329 0-0.659-0.005-0.993-0.010h-0.093c-0.021-0.37 0-0.731 0-1.101 0.365-0.005 0.72-0.010 1.086-0.021 0.015-0.093 0-0.18 0-0.268v-0.813h1.101v1.065c0.062 0.021 0.931 0.026 1.091 0.010h0.005v-0.031c0-0.355 0-0.705-0.005-1.060v0c0.334 0.005 0.674 0.010 1.009 0.010h0.098v2.171c0.087 0.026 0.916 0.051 1.101 0.036v-2.202c0.031 0 0.051-0.005 0.072-0.010 0.309 0 0.617-0.010 0.926-0.010h0.041c0.062 0 0.072 0.010 0.072 0.072v0.473c0 0.525 0 1.050 0 1.575v0.093c0.365 0.010 0.731 0 1.101 0v-2.213c-0.36 0-0.72-0.005-1.096-0.010v-3.37c-0.365-0.010-0.726 0-1.096-0.010-0.026-0.36 0-0.726-0.015-1.086-0.103-0.026-1.003-0.021-1.086 0.010v1.060c0.041 0 0.082 0.010 0.123 0.010 0.293 0.005 0.581 0.010 0.875 0.015h0.093v1.158c-0.365 0-0.726 0.005-1.096 0.010v1.101h-1.101c-0.010-0.185 0-0.365-0.005-0.545v-0.551c-0.031 0-0.062-0.005-0.087-0.005h-2.053s-0.041 0-0.072-0.005c0-0.051-0.005-0.103-0.005-0.149v-0.978zM24.199 7.79v-7.775c0.031 0 0.062 0 0.093 0 0.787 0 1.569-0.010 2.357-0.010h5.254c0.015 0.057 0.021 7.718 0 7.801-0.262 0.021-7.59 0.010-7.713-0.015h0.010zM25.301 6.705h5.511v-5.578s-0.051 0-0.077 0h-5.326c-0.031 0-0.067 0-0.103 0-0.015 1.863-0.010 3.715 0 5.578v0zM0.036 7.801v-7.801h7.667v7.795h-0.087c-0.54 0-1.075 0.005-1.616 0.010h-5.706c-0.082 0-0.16 0-0.252-0.005v0zM1.153 6.694c0.041 0 0.072 0.005 0.108 0.005h4.091c0.391 0 0.782 0 1.173-0.005 0.026 0 0.051 0 0.087-0.005v-2.923c0-0.834 0-1.672-0.005-2.506 0-0.046-0.005-0.093-0.010-0.149h-5.331c-0.036 0-0.072 0-0.108 0v5.573zM7.698 32h-7.651c0-0.036 0-0.072 0-0.103 0-0.324 0-0.648 0-0.973v-6.597c0.046 0 0.087 0 0.129 0h7.538v7.677zM6.607 25.434h-5.449v5.382s0 0.041 0.010 0.062h5.444v-5.449h-0.005zM28.604 11.114h2.202v-1.111c0.031 0 0.062 0.010 0.087 0.010h1.014v2.156h-1.086c-0.026 0.062-0.031 0.952-0.010 1.091 0.36 0.015 0.726 0 1.096 0.015v3.309h-1.091c0 0.036-0.010 0.062-0.015 0.087 0 0.309 0 0.623 0 0.931 0 0.021 0 0.036 0.010 0.067 0.046 0 0.087 0.010 0.129 0.010h0.973v3.314c-0.36 0.010-0.72-0.010-1.096 0-0.010 0.123 0 0.247-0.010 0.365v0.741c-0.36 0.010-0.726 0-1.091 0 0-0.026 0-0.046 0-0.067v-2.089s0-0.046 0.010-0.067v0s0.041 0.015 0.062 0.015h0.973s0.031 0 0.051 0v-1.101h-1.075c0-0.062-0.015-0.113-0.015-0.165v-3.154h1.065c0.026-0.067 0.036-0.957 0.015-1.101h-1.081c-0.010-0.154 0-0.304 0-0.448v-1.765c-0.36 0-0.726-0.005-1.101-0.010v-1.029zM12.401 19.61c0.015-0.072 0.021-0.134 0.036-0.19l0.386-1.436c0.015-0.062 0.036-0.123 0.057-0.185 0.015-0.051 0.015-0.098-0.010-0.144-0.129-0.242-0.221-0.494-0.298-0.756-0.036-0.134-0.062-0.273-0.077-0.407-0.036-0.268-0.031-0.54-0.021-0.808s0.082-0.525 0.159-0.782c0.149-0.473 0.401-0.89 0.731-1.255 0.149-0.165 0.309-0.329 0.489-0.463 0.252-0.18 0.515-0.334 0.808-0.448 0.206-0.077 0.417-0.159 0.638-0.19 0.304-0.041 0.607-0.108 0.916-0.067 0.232 0.031 0.468 0.057 0.7 0.108 0.268 0.057 0.52 0.165 0.751 0.304 0.19 0.113 0.376 0.237 0.551 0.37 0.304 0.242 0.566 0.525 0.767 0.854 0.051 0.087 0.108 0.175 0.154 0.268 0.19 0.37 0.293 0.762 0.365 1.168 0.036 0.206 0.046 0.412 0.031 0.623-0.041 0.545-0.175 1.060-0.437 1.544-0.16 0.288-0.355 0.551-0.607 0.767l-0.077 0.077c-0.304 0.309-0.669 0.535-1.060 0.71-0.499 0.221-1.024 0.298-1.569 0.262-0.484-0.031-0.937-0.16-1.374-0.37-0.041-0.021-0.082-0.026-0.129-0.015-0.437 0.113-0.875 0.232-1.312 0.34-0.165 0.041-0.329 0.072-0.494 0.108-0.021 0-0.041 0-0.082 0.010h0.010zM13.332 18.699c0.077 0.010 0.149 0 0.226-0.026 0.232-0.057 0.463-0.113 0.69-0.18 0.113-0.031 0.211-0.021 0.309 0.036 0.010 0 0.021 0.010 0.031 0.015 0.304 0.165 0.628 0.278 0.973 0.334 0.206 0.031 0.406 0.067 0.612 0.036 0.16-0.021 0.319-0.046 0.479-0.077 0.257-0.046 0.489-0.154 0.72-0.278 0.684-0.37 1.132-0.931 1.374-1.662 0.036-0.103 0.051-0.216 0.072-0.324 0.051-0.232 0.087-0.468 0.057-0.71-0.015-0.108-0.031-0.221-0.051-0.329-0.036-0.18-0.051-0.365-0.134-0.53-0.057-0.113-0.108-0.226-0.165-0.334-0.309-0.587-0.782-0.993-1.379-1.266-0.17-0.077-0.355-0.123-0.54-0.17-0.324-0.077-0.648-0.093-0.983-0.036-0.365 0.057-0.715 0.149-1.039 0.334-0.232 0.134-0.443 0.288-0.628 0.473-0.34 0.345-0.587 0.746-0.726 1.22-0.108 0.355-0.144 0.715-0.108 1.086 0.041 0.417 0.165 0.808 0.381 1.168 0.031 0.057 0.062 0.113 0.082 0.175 0.010 0.036 0.010 0.077 0.005 0.113-0.015 0.082-0.041 0.165-0.067 0.247-0.067 0.226-0.129 0.458-0.196 0.689v0zM11.037 14.392c-0.005-0.041-0.021-0.082-0.021-0.123v-0.993c-0.252-0.010-0.494-0.010-0.736-0.010h-1.456c-0.021-0.062-0.026-3.118-0.005-3.247 0.36-0.005 0.72-0.005 1.091 0 0 0.715-0.010 1.425 0 2.135 0.036 0 0.067 0.010 0.098 0.010h3.216v-2.146c0.37 0 0.731 0 1.106-0.005v0.983c0 0.036 0 0.072 0.005 0.113h0.885c0.067 0 0.139 0.005 0.206 0.010v0.834c-0.108 0.021-0.211 0.041-0.309 0.067-0.19 0.046-0.854 0.278-0.911 0.309-0.216 0.118-0.432 0.237-0.633 0.381-0.17 0.123-0.324 0.262-0.468 0.406-0.159 0.159-0.113 0.154-0.37 0.149-0.17 0-0.34 0-0.509-0.005h-0.093c0 0.036-0.005 0.067-0.010 0.093-0.005 0.334-0.010 0.669-0.015 1.014-0.026 0-0.046 0.010-0.067 0.010-0.319 0-0.638-0.010-0.957-0.010-0.021 0-0.046-0.010-0.051 0.026h0.005zM29.71 19.893s-0.051 0.010-0.072 0.010h-2.13c-0.010-0.19 0-0.376-0.010-0.556v-1.647c-0.093-0.010-0.185 0-0.278 0h-0.813c0-0.041-0.010-0.072-0.010-0.103 0-0.309 0-0.623 0-0.931 0-0.021 0-0.036 0-0.067 0.365-0.010 0.726 0 1.096 0v-3.309c0.37-0.010 0.736-0.010 1.106 0.005v4.595c0 0.304 0 0.607 0 0.921h1.096v0.098c0 0.304 0 0.607 0 0.906v0.093h0.010zM12.113 29.772h0.072c0.309 0 0.623 0.010 0.931 0.010h0.098v1.086s0.057 0.015 0.087 0.015c0.329 0 0.659 0.010 0.993 0.010 0.010 0 0.021 0 0.036 0v-1.117h3.293s0.010 0.036 0.010 0.051v0.998s0 0.041-0.010 0.067h-3.273c-0.015 0.19-0.015 0.37-0.015 0.556v0.551c-0.041 0-0.072 0-0.103 0h-3.206v-1.111h1.086s0.010-0.041 0.010-0.057v-1.075l-0.010 0.015zM21.987 32.005v-1.101c-0.37 0-0.731-0.010-1.101-0.010v-1.101c0.36 0 0.726-0.010 1.096-0.010v-1.086h2.218v2.192c-0.365 0.026-0.736 0-1.111 0.026-0.010 0.19 0 0.37 0 0.556v0.545h-1.096v-0.010zM12.113 29.772s-0.046 0.010-0.072 0.010h-0.885c-0.041 0-0.082 0-0.129 0.010-0.010 0.37-0.015 0.731-0.026 1.101h-1.086c0 0.051-0.010 0.093-0.010 0.139 0 0.293 0 0.587-0.005 0.885v0.093c-0.365 0.010-0.726 0-1.086 0v-1.101h1.096c0.010-0.365 0-0.736 0-1.111-0.185-0.015-0.37 0-0.551-0.010h-0.545v-1.091h1.106v-1.096h1.117c-0.005 0.365-0.010 0.72-0.015 1.086 0.036 0 0.072 0.010 0.108 0.010 0.309 0 0.617 0 0.926 0h0.077v0.087c0 0.304-0.010 0.607-0.015 0.906v0.082zM30.811 26.453s-0.036 0.010-0.057 0.010h-1.045v-2.13c-0.36-0.010-0.72-0.015-1.086-0.026-0.015-0.36-0.021-0.72-0.015-1.081h3.309v2.192c-0.031 0-0.057 0.010-0.087 0.010h-0.942c-0.057 0-0.067 0.015-0.077 0.067v0.026c0 0.298 0 0.592 0 0.89 0 0.015 0 0.026 0 0.041v0zM11.022 7.801v0.473c0 0.196 0 0.391-0.005 0.581v0.057h1.091c0.021 0.057 0.026 2.084 0.010 2.202h-1.096c0-0.36-0.010-0.72 0-1.091-0.036 0-0.072-0.010-0.108-0.010h-0.988c0-0.046-0.010-0.082-0.010-0.123v-2.074s0.036-0.005 0.051-0.005c0.34 0 0.684-0.005 1.024-0.010h0.031zM24.194 16.574s-0.031 0-0.051 0h-1.009s-0.031 0-0.057 0v-2.192h0.093c0.293 0 0.581 0 0.875-0.005 0.046 0 0.093 0 0.149-0.005 0-0.365 0.010-0.72-0.015-1.086 0.376-0.015 0.736-0.021 1.111-0.010 0 0.736 0 1.472 0 2.213h-1.081s0 0.036 0 0.046c0 0.329-0.015 0.653-0.021 0.983 0 0.021 0 0.041 0.010 0.067v0-0.010zM20.87 14.387s-0.036-0.005-0.057-0.005h-0.957c-0.077 0-0.113-0.031-0.149-0.098-0.108-0.201-0.226-0.401-0.345-0.597-0.144-0.242-0.345-0.437-0.535-0.633-0.057-0.057-0.087-0.118-0.087-0.201v-0.679c0.71 0 1.42-0.005 2.141 0 0 0.041 0 0.067 0 0.098v2.032c0 0.031-0.010 0.057-0.021 0.087h0.005zM30.806 29.782v0.978q0 0.129 0.139 0.129h0.962c0.021 0.057 0.026 0.998 0.010 1.106-0.731 0.010-1.461 0.010-2.197 0v-2.218h1.086zM9.915 4.487c-0.005-0.391-0.010-0.767-0.021-1.153 0.37-0.015 0.741-0.021 1.117-0.015v1.163c-0.365 0-0.726 0-1.096 0.005 0 0.046-0.010 0.082-0.010 0.118 0 0.304 0 0.607-0.005 0.906v0.072c-0.098 0.026-0.931 0.026-1.091 0v-1.075c0.175-0.021 0.36-0.015 0.54-0.026s0.365 0 0.566 0v0zM13.209 3.314c-0.17 0-0.345 0.005-0.515 0.010h-0.576v-2.197c0.082-0.026 0.957-0.026 1.101 0v0.129c0 0.602-0.010 1.204-0.015 1.806v0.257h0.005zM15.426 23.227v1.081h-2.207v-1.081h2.207zM28.604 22.121h-1.101c-0.021-0.36-0.015-0.726-0.015-1.101h1.117s0 1.101 0 1.101zM17.618 30.899h1.117v1.086c-0.082 0.031-0.916 0.036-1.096 0 0-0.031 0-0.062 0-0.093v-0.906c0-0.031 0-0.062-0.010-0.087h-0.005zM30.811 26.453c0.031 0 0.062 0.015 0.093 0.015 0.304 0 0.612 0 0.916 0h0.103v1.101h-1.106v-1.024c0-0.031 0-0.067 0.010-0.098h-0.015zM8.804 26.474h1.106c-0.005 0.365-0.010 0.731-0.015 1.101h-1.091v-1.101zM31.918 28.686v1.091h-1.086c-0.031-0.082-0.041-0.818-0.021-1.091h1.111zM17.629 22.11c-0.041 0-0.082 0-0.123 0h-0.978c0-0.376 0-0.736 0.010-1.106h1.086v1.106h0.005zM0.036 23.211v-1.081c0.067-0.021 1.045-0.010 1.122 0.010 0 0.355-0.010 0.71-0.015 1.070h-1.106zM0.031 13.239c0-0.355-0.005-0.71 0.010-1.070h1.101v1.081c-0.087 0.021-1.034 0.015-1.111-0.010zM0.041 20.999v-1.086h1.101v1.086h-1.101zM8.809 1.111h1.096v1.091c-0.365 0.010-0.731 0.010-1.096 0.005 0 0 0-1.096 0-1.096zM20.865 14.387h1.117v1.096h-1.086s-0.015-0.051-0.015-0.077v-0.885c0-0.046-0.010-0.093-0.015-0.139v0zM19.836 29.777h-1.096v-1.096h1.096v1.091zM4.451 8.938c0.067-0.021 0.947-0.031 1.106-0.010v1.075c-0.062 0.021-0.936 0.021-1.096 0v-0.772c0-0.098-0.005-0.196-0.010-0.298v0zM28.604 11.114h-1.034s-0.036-0.005-0.067-0.010c-0.015-0.36 0-0.715 0-1.075h1.101v1.091zM1.153 22.105c-0.015-0.36 0-0.72-0.010-1.081 0.077-0.021 0.808-0.031 1.091-0.015v1.101c-0.365 0-0.72 0.021-1.081-0.010v0zM30.811 10.008s-0.041 0.010-0.062 0.010h-1.039v-1.086c0.365-0.010 0.731-0.010 1.096-0.005v0.108c0 0.304 0 0.612 0 0.916 0 0.021 0 0.041 0.010 0.067v0-0.010zM21.992 27.59c0 0.365-0.015 0.72-0.021 1.091-0.365 0-0.726 0-1.086 0v-1.091c0.37 0 0.731-0.010 1.106 0.010v0zM28.625 28.676c0-0.057-0.015-0.118-0.015-0.175v-0.875s0-0.015 0-0.036c0.365 0 0.726-0.015 1.096-0.010v1.091h-1.086zM15.426 6.699h-1.091c-0.021-0.36 0-0.715-0.015-1.081 0.365-0.010 0.731-0.015 1.101-0.015 0 0.021 0.005 0.036 0.005 0.051v1.045zM23.078 12.174c0.015 0.18-0.010 0.365 0 0.545v0.54h-1.091v-1.086h1.091zM27.493 10.013h-1.091v-1.091h1.091v1.091zM21.987 1.106v-1.091c0.365-0.015 0.731 0 1.096 0v1.096h-1.096zM6.607 10.013v-1.075c0.062-0.021 0.983-0.031 1.096-0.005v1.081h-1.096zM12.128 6.699c0-0.154-0.010-0.304-0.010-0.458v-0.623c0.355-0.010 0.72-0.015 1.086-0.015v1.091h-1.081zM21.971 20.994h-1.086c0-0.37-0.010-0.736-0.015-1.096v0s0.051 0 0.072 0c0.314 0 0.633 0 0.947 0h0.098v0.437c0 0.216-0.010 0.432-0.015 0.648v0zM12.123 6.699c-0.005 0.365-0.015 0.731-0.021 1.101h-0.082c-0.273 0-0.545-0.010-0.813-0.015-0.062 0-0.118 0.010-0.18 0.015v0c0-0.334-0.010-0.664-0.010-0.998v-0.087c0.37-0.005 0.741-0.010 1.111-0.015v0zM9.895 7.801c-0.37 0-0.726 0.010-1.086 0v-1.081c0.365-0.010 0.726-0.005 1.086-0.005v1.091zM15.421 21.004h-1.075c-0.031-0.365-0.021-0.726-0.021-1.086 0.015 0 0.026-0.015 0.031-0.015 0.196 0 0.386-0.015 0.576 0.041 0.159 0.046 0.324 0.077 0.489 0.118 0 0 0 0.942 0 0.942zM6.607 12.164v-1.039h1.091v1.039h-1.091zM11.006 15.483c0.087 0 0.17-0.005 0.257-0.005h0.653v0.057c-0.010 0.165-0.021 0.324-0.026 0.489 0 0.16 0.010 0.314 0.015 0.473v0.087c-0.082 0.015-0.777 0-0.88-0.021v-0.087c0-0.288-0.005-0.571-0.010-0.859 0-0.046 0-0.093-0.005-0.139h-0.005zM12.102 18.375c0.005-0.216 0.010-0.427 0.021-0.648 0.057-0.031 0.113-0.041 0.18 0 0.015 0.046 0 0.087-0.015 0.129-0.031 0.139-0.062 0.273-0.098 0.412-0.010 0.046-0.021 0.098-0.067 0.123-0.005 0-0.015 0-0.021 0v0zM17.623 19.887c-0.118 0.026-0.247 0.031-0.314 0 0.051-0.021 0.093-0.041 0.139-0.062s0.087-0.041 0.134-0.067c0.051 0.036 0.046 0.082 0.041 0.129zM17.587 12.252c-0.036-0.015-0.067-0.031-0.108-0.051 0.041-0.036 0.072-0.046 0.108-0.026 0.026 0.015 0.031 0.041 0 0.077zM24.199 25.424v-1.096h1.096v1.081c-0.087 0.021-0.926 0.031-1.096 0.015zM26.407 5.603c-0.021-0.134-0.015-3.309 0-3.391 0.123-0.026 3.19-0.021 3.303 0.005v3.381c-1.106 0.010-2.207 0.010-3.309 0v0zM5.552 5.609c-1.101 0-2.202 0.010-3.303-0.010v-3.396c1.101 0 2.202-0.010 3.298 0 0.021 0.072 0.031 3.237 0.010 3.401h-0.005zM5.557 26.474v3.293c-0.082 0.015-3.237 0.021-3.314 0v-3.298c1.101-0.015 2.202-0.015 3.314 0zM16.908 17.649c-0.165 0-0.314-0.036-0.458-0.082-0.329-0.108-0.643-0.252-0.921-0.458-0.293-0.221-0.566-0.463-0.772-0.772-0.103-0.149-0.216-0.298-0.309-0.453s-0.17-0.319-0.196-0.499c-0.041-0.288 0.046-0.54 0.211-0.772 0.134-0.185 0.314-0.216 0.525-0.175 0.062 0.010 0.103 0.041 0.129 0.103 0.051 0.134 0.103 0.262 0.159 0.391 0.036 0.082 0.072 0.165 0.113 0.242 0.051 0.093 0.046 0.17-0.021 0.252-0.062 0.077-0.113 0.159-0.175 0.232-0.062 0.067-0.057 0.134-0.010 0.201 0.072 0.113 0.139 0.232 0.226 0.329 0.262 0.298 0.576 0.535 0.957 0.669 0.057 0.021 0.093 0.010 0.129-0.031 0.077-0.087 0.154-0.175 0.232-0.262 0.031-0.036 0.062-0.072 0.093-0.103 0.062-0.067 0.067-0.067 0.149-0.026 0.226 0.113 0.453 0.221 0.679 0.334 0.093 0.046 0.098 0.067 0.077 0.165-0.015 0.082-0.031 0.165-0.046 0.247-0.015 0.098-0.062 0.18-0.144 0.232-0.087 0.062-0.18 0.123-0.278 0.17-0.113 0.057-0.237 0.082-0.35 0.072v0z"></path>
</svg>
