<!-- Generated by IcoMoon.io -->
<svg version="1.1" xmlns="http://www.w3.org/2000/svg" width="32" height="32" viewBox="0 0 32 32">
<path d="M5.166 7.076c-0.112 0-0.185 0-0.259 0-0.624-0.001-1.249 0.005-1.873-0.005-0.605-0.010-1.050-0.336-1.228-0.88-0.161-0.492 0.010-1.050 0.426-1.381 0.212-0.169 0.454-0.261 0.729-0.261 1.775 0.001 3.55-0.003 5.326 0.004 0.689 0.003 1.2 0.561 1.201 1.301 0.002 1.636 0.001 3.274 0 4.91 0 0.102-0.014 0.207-0.034 0.309-0.124 0.631-0.689 1.057-1.329 1.008-0.662-0.053-1.151-0.55-1.164-1.213-0.013-0.63-0.003-1.261-0.003-1.938-0.064 0.066-0.101 0.1-0.131 0.139-1.214 1.556-2.006 3.3-2.292 5.252-0.616 4.204 0.615 7.784 3.746 10.659 1.756 1.613 3.864 2.535 6.234 2.843 5.907 0.765 11.514-3.064 12.793-8.88 1.076-4.898-0.475-8.938-4.376-12.076-0.503-0.405-0.692-0.881-0.525-1.436 0.259-0.859 1.242-1.186 1.977-0.645 0.39 0.287 0.767 0.595 1.125 0.923 2.419 2.215 3.96 4.94 4.471 8.174 1.168 7.389-3.157 13.55-9.16 15.742-1.94 0.709-3.954 0.977-6.010 0.774-4.786-0.476-8.46-2.773-10.994-6.86-1.032-1.665-1.605-3.501-1.871-5.438-0.557-4.059 0.523-7.65 3.070-10.828 0.046-0.053 0.084-0.107 0.149-0.196zM17.191 9.869c0 2.17 0.001 4.341-0.001 6.511-0.001 0.616-0.329 1.1-0.85 1.275-0.834 0.279-1.684-0.329-1.689-1.215-0.005-0.929-0.001-1.859-0.001-2.787 0-3.411 0-6.824 0-10.235 0-0.511 0.171-0.94 0.63-1.21 0.844-0.496 1.903 0.101 1.906 1.087 0.009 2.191 0.003 4.383 0.003 6.574 0.001 0 0.003 0 0.003 0z"></path>
</svg>
