<!-- Generated by IcoMoon.io -->
<svg version="1.1" xmlns="http://www.w3.org/2000/svg" width="45" height="32" viewBox="0 0 45 32">
<path d="M16.895 23.273c1.733-1.785 3.327-3.474 4.972-5.126 4.824-4.846 9.663-9.67 14.494-14.502 0.354-0.354 0.693-0.73 1.092-1.025 1.239-0.929 2.751-0.797 3.762 0.302 0.944 1.033 1.092 2.596 0.059 3.636-7.509 7.583-15.047 15.121-22.623 22.638-1.121 1.114-2.596 1.055-3.754-0.074-3.769-3.695-7.502-7.428-11.197-11.204-1.188-1.21-1.121-2.773-0.044-3.88 1.099-1.129 2.788-1.18 4.027 0.030 3.017 2.95 5.975 5.96 9.213 9.206z"></path>
</svg>
