<!-- Generated by IcoMoon.io -->
<svg version="1.1" xmlns="http://www.w3.org/2000/svg" width="28" height="32" viewBox="0 0 28 32">
<path d="M19.54 6.468v16.921c-0.001 0.961-0.102 1.898-0.294 2.801l0.016-0.088c4.274-0.779 7.064-3.414 8.467-8.015l0.685-2.263v-15.392c-8.050 0-8.875 3.087-8.875 6.036zM5.331 2.178h1.778v1.778h-1.778zM7.109 4.845h1.778v1.762h-1.778zM5.36 7.060h1.762v1.762h-1.762zM3.569 9.695h1.762v1.762h-1.762zM0 0.4h1.778v1.778h-1.778zM8.887 23.39v-12.819h-1.778v6.547h-1.778v-3.912h-1.778v1.762h-1.775v-9.699h-1.778v14.503c0 7.203 5.27 12.631 14.225 12.631 0 0-5.334-2.932-5.334-9.014zM15.47 27.053c-2.37-0.11-4.203-0.702-5.616-1.574 0.95 4.164 4.526 6.207 4.71 6.301l1.060 0.575c8.082-0.546 12.819-5.755 12.819-12.583v-1.484c-1.94 6.269-6.408 9.052-12.974 8.765zM3.569 3.956h1.762v1.762h-1.762z"></path>
</svg>
