<!-- Generated by IcoMoon.io -->
<svg version="1.1" xmlns="http://www.w3.org/2000/svg" width="32" height="32" viewBox="0 0 32 32">
<path d="M26.88 14.53c0.205-0.535 0.32-1.12 0.32-1.73 0-2.65-2.15-4.8-4.8-4.8-0.985 0-1.905 0.3-2.665 0.81-1.385-2.4-3.97-4.010-6.935-4.010-4.42 0-8 3.58-8 8 0 0.135 0.005 0.273 0.010 0.406-2.8 0.984-4.81 3.654-4.81 6.794 0 3.975 3.225 7.2 7.2 7.2h18.4c3.535 0 6.4-2.865 6.4-6.4 0-3.095-2.2-5.68-5.12-6.27zM21.249 17.646c-0.469 0.469-1.229 0.469-1.698 0l-2.351-2.351v7.505c0 0.663-0.54 1.2-1.2 1.2s-1.2-0.54-1.2-1.2v-7.505l-2.351 2.354c-0.469 0.469-1.229 0.469-1.697 0s-0.469-1.229 0-1.697l4.4-4.4c0.129-0.129 0.424-0.351 0.849-0.351s0.72 0.225 0.805 0.395l4.4 4.4c0.51 0.425 0.512 1.182 0.044 1.651z"></path>
</svg>
