<!-- Generated by IcoMoon.io -->
<svg version="1.1" xmlns="http://www.w3.org/2000/svg" width="32" height="32" viewBox="0 0 32 32">
<path d="M6.647 5.092c0.256-0.304 0.503-0.579 0.731-0.863 0.209-0.256 0.408-0.408 0.683-0.095 0.465-0.408 0.503-0.408 0.806 0.019 0.152-0.19 0.275-0.408 0.455-0.55 0.104-0.095 0.294-0.086 0.446-0.123-0.010 0.152 0.038 0.361-0.038 0.465-1.034 1.366-1.992 2.78-2.77 4.307-1.224 2.4-1.992 4.905-1.945 7.628 0.057 3.064 1.148 5.73 2.998 8.14 1.546 2.011 3.529 3.311 6.015 3.748 0.825 0.142 1.698 0.067 2.543 0.076 0.038 0 0.085-0.029 0.218-0.085-0.209-0.057-0.323-0.095-0.436-0.123-5.427-1.281-9.184-6.195-8.994-11.774 0.085-2.438 0.721-4.696 2.125-6.717 1.233-1.774 2.894-2.988 4.895-3.757 0.19-0.076 0.379-0.247 0.474-0.427 0.93-1.831 2.419-2.742 4.459-2.751 3.102-0.029 5.237 1.546 6.707 4.165 0.029 0.636 0.569 0.873 0.968 1.224 4.905 4.269 5.265 11.906 0.797 16.641-1.224 1.3-2.666 2.277-4.326 2.941-0.247 0.095-0.474 0.237-0.683 0.408-1.575 1.262-3.387 1.917-5.37 2.116-2.457 0.237-4.867 0.029-7.172-0.901-1.822-0.74-3.321-1.936-4.62-3.377-1.594-1.765-2.856-3.757-3.719-5.977-0.92-2.362-1.015-4.8-0.484-7.258 0.398-1.85 1.252-3.491 2.4-4.99 0.076-0.095 0.256-0.237 0.323-0.209 0.341 0.142 0.436-0.104 0.588-0.294 0.389-0.493 0.778-0.977 1.186-1.452 0.285-0.37 0.341-0.361 0.74-0.152zM18.857 27.539c0.114-0.057 0.218-0.114 0.332-0.171 1.357-0.816 1.907-2.21 1.527-3.823-0.579-2.467-1.584-4.781-2.571-7.106-0.74-1.755-1.433-3.539-2.087-5.332-0.361-0.996-0.493-2.059-0.455-3.121 0.076-1.964 0.531-3.757 2.362-5.028-0.209 0.057-0.304 0.076-0.389 0.114-0.142 0.057-0.275 0.123-0.417 0.199-1.148 0.626-1.774 1.641-2.154 2.846-0.579 1.841-0.427 3.681 0.18 5.446 0.674 1.973 1.49 3.899 2.296 5.825 0.844 2.011 1.727 4.004 2.229 6.129 0.351 1.452 0.256 2.827-0.854 4.023zM22.804 26.751c0.010 0 0.048 0.010 0.057 0 0.057-0.048 0.114-0.104 0.171-0.152 1.157-1.176 1.556-2.637 1.518-4.231-0.057-2.543-0.816-4.914-1.888-7.191-0.854-1.803-1.746-3.596-2.6-5.408-0.237-0.493-0.417-1.015-0.569-1.537-0.37-1.224-0.664-2.448 0.171-3.643-0.218 0.171-0.446 0.332-0.55 0.56-0.19 0.398-0.37 0.816-0.436 1.252-0.256 1.67 0.152 3.245 0.788 4.762 0.541 1.3 1.195 2.562 1.784 3.842 0.996 2.144 1.917 4.307 2.324 6.65 0.228 1.281 0.304 2.562-0.142 3.814-0.161 0.446-0.417 0.854-0.626 1.281zM20.546 26.989c0.019 0.019 0.038 0.038 0.057 0.048 0.123-0.123 0.266-0.237 0.379-0.36 1.072-1.186 1.309-2.59 0.977-4.108-0.436-1.992-1.214-3.861-2.049-5.711-0.863-1.907-1.755-3.795-2.524-5.73-0.702-1.765-0.873-3.615-0.247-5.465 0.341-1.025 0.882-1.888 1.936-2.334 0.029-0.010 0.038-0.057 0.085-0.142-0.199 0.048-0.351 0.076-0.493 0.123-0.939 0.313-1.527 0.987-1.917 1.86-0.731 1.641-0.75 3.33-0.36 5.057 0.455 2.011 1.319 3.88 2.144 5.759 0.968 2.21 1.907 4.421 2.543 6.755 0.313 1.148 0.455 2.277-0.048 3.406-0.133 0.285-0.323 0.56-0.484 0.844zM19.768 3.707c-0.114 0.029-0.228 0.048-0.341 0.086-0.721 0.247-1.195 0.759-1.508 1.433-0.75 1.603-0.721 3.254-0.266 4.933 0.465 1.708 1.252 3.283 2.011 4.867 1.1 2.296 2.163 4.62 2.77 7.106 0.351 1.452 0.332 2.865-0.465 4.174-0.237 0.379-0.541 0.721-0.882 1.167 0.199-0.133 0.323-0.209 0.427-0.285 1.148-0.863 1.632-2.049 1.67-3.444 0.038-1.233-0.199-2.438-0.541-3.615-0.693-2.438-1.803-4.706-2.913-6.973-0.844-1.727-1.565-3.491-1.679-5.436-0.067-1.034 0-2.059 0.626-2.931 0.294-0.417 0.721-0.721 1.091-1.081zM5.129 20.253c0.048-0.010 0.095-0.029 0.133-0.038-0.048-0.152-0.085-0.304-0.133-0.455-0.674-2.106-0.797-4.25-0.455-6.423 0.398-2.524 1.395-4.81 2.713-6.973 0.209-0.341 0.427-0.693 0.636-1.034-0.161 0.076-0.266 0.19-0.341 0.323-0.712 1.205-1.508 2.372-2.116 3.624-1.29 2.685-1.803 5.512-1.176 8.472 0.19 0.854 0.493 1.67 0.74 2.505zM4.712 23.298c-2.78-4.402-3.691-9.013-1.565-13.975-2.343 3.928-2.030 9.411 1.565 13.975zM6.543 6.287c-1.129 1.233-2.837 4.345-3.178 7.4-0.275 2.476 0.617 6.537 1.86 7.903-2.77-5.446-1.746-10.465 1.319-15.303zM5.338 6.857c-4.042 5.171-3.539 11.783 0.531 16.906-3.928-5.512-4.155-11.148-0.531-16.906z"></path>
</svg>
