<!-- Generated by IcoMoon.io -->
<svg version="1.1" xmlns="http://www.w3.org/2000/svg" width="32" height="32" viewBox="0 0 32 32">
<path d="M22.913 15.012c0-2.188 0.012-4.375 0-6.55 0-0.563 0.4-1.125 1.125-1.125 2.25 0 4.488 0 6.738 0 0.1 0 0.188 0.013 0.288 0.025 0.512 0.075 0.913 0.525 0.9 1.063 0 0.537-0.4 0.988-0.925 1.050-0.087 0.012-0.175 0.012-0.262 0.012-1.45 0-2.887 0.012-4.338 0-0.587-0.012-1.137 0.412-1.125 1.125 0.012 0.738 0 1.475 0 2.225 0 0.662 0.45 1.113 1.113 1.113 1.225 0 2.438 0 3.663 0 0.575 0 1.038 0.412 1.075 0.95 0.050 0.6-0.325 1.075-0.9 1.175-0.050 0.012-0.113 0.012-0.163 0.012-1.225 0-2.462 0-3.688 0-0.462 0-0.825 0.212-1.012 0.637-0.063 0.137-0.087 0.3-0.087 0.462-0.012 0.762 0 1.525 0 2.288 0 0.7 0.575 1.1 1.087 1.087 1.488-0.012 2.975 0 4.463 0 0.512 0 0.95 0.337 1.063 0.813 0.163 0.7-0.337 1.325-1.063 1.337-0.725 0-1.45 0-2.175 0-1.55 0-3.1 0-4.65 0-0.425 0-0.762-0.175-0.988-0.538-0.1-0.163-0.137-0.35-0.137-0.538 0-2.212 0-4.425 0-6.625zM5.6 22.7c-1.45 0-2.9 0-4.35 0-0.438 0-0.75-0.188-0.95-0.563-0.2-0.363-0.175-0.725 0.037-1.075 1.050-1.65 2.1-3.288 3.15-4.938 1.163-1.825 2.325-3.65 3.487-5.488 0.237-0.375 0.175-0.787-0.175-1.037-0.138-0.1-0.287-0.125-0.463-0.125-1.513 0-3.013 0-4.525 0-0.363 0-0.675-0.113-0.9-0.412-0.25-0.325-0.313-0.688-0.162-1.063s0.438-0.588 0.825-0.65c0.087-0.013 0.175-0.025 0.275-0.025 2.675 0 5.362 0 8.037 0 0.588 0 1.025 0.362 1.113 0.925 0.037 0.25-0.012 0.5-0.15 0.713-0.775 1.275-1.575 2.537-2.388 3.813-1.225 1.925-2.463 3.85-3.688 5.787-0.188 0.288-0.375 0.587-0.563 0.875-0.15 0.225-0.162 0.475-0.050 0.712 0.125 0.262 0.338 0.4 0.625 0.4 0.55 0.012 1.1 0 1.65 0 1.162 0 2.325 0 3.5 0 0.775 0 1.287 0.762 1 1.475-0.15 0.4-0.537 0.663-0.975 0.663-1.45 0.012-2.9 0.012-4.362 0.012zM15.775 16.050c0-1.813 0-3.625 0-5.45 0-0.55-0.325-0.988-0.825-1.088-0.088-0.025-0.175-0.025-0.275-0.025-0.588 0-1.175 0-1.775 0-0.65 0-1.137-0.512-1.1-1.137 0.037-0.563 0.488-0.987 1.075-1.013 0.088 0 0.162 0 0.25 0 2.625 0 5.25 0 7.875 0 0.587 0 1.012 0.338 1.125 0.9 0.113 0.575-0.313 1.162-0.887 1.238-0.137 0.012-0.288 0.012-0.438 0.012-0.5 0-1.012 0-1.512 0-0.663 0-1.113 0.45-1.113 1.113 0 3.625 0 7.262 0 10.887 0 0.688-0.512 1.212-1.2 1.212-0.675 0-1.2-0.525-1.2-1.212 0-1.813 0-3.625 0-5.438z"></path>
</svg>
